<ttFont>
          <CharString index="0">
            rmoveto
            50 vlineto
            356 -215 218 -315 -312 -217 -218 -356 vhcurveto
            -50 vlineto
            -356 219 -217 312 314 214 217 356 vhcurveto
            -248 52 rmoveto
            -52 vlineto
            -238 -103 -135 -177 -176 -107 135 238 vhcurveto
            52 vlineto
            239 105 132 176 177 105 -132 -239 vhcurveto
            endchar
          </CharString>
          <CharString index="1">
            rmoveto
            hintmask 11101100
            71 35 43 60 76 vvcurveto
            146 -119 77 -168 -165 -119 -77 -146 -76 43 -59 71 -35 vhcurveto
            hintmask 11110010
            -81 -36 -52 -65 -88 vvcurveto
            -153 131 -76 174 174 129 76 153 87 -51 65 -81 36 vhcurveto
            hintmask 11101100
            -173 243 rmoveto
            63 35 -32 -52 -51 -34 -35 -62 -62 -35 35 51 53 35 31 60 hvcurveto
            hintmask 11110010
            2 -509 rmoveto
            -70 -46 36 59 59 46 33 68 69 48 -33 -59 -59 -46 -36 -69 hvcurveto
            endchar
          </CharString>
          <CharString index="2">
            393 327 179 369 hvcurveto
            674 -245 -647 vlineto
            -259 -208 -115 -278 -121 -144 32 51 -120 vhcurveto
            251 105 rmoveto
            208 -4 rlineto
            62 69 33 114 135 vvcurveto
            519 -246 -569 vlineto
            -114 -20 -99 -37 -51 vhcurveto
            return
          </CharString>
          <CharString index="3">
            271 hlineto
            -551 -68 callsubr
            rlineto
            -233 hlineto
            -549 -48 callgsubr
            rlineto
            271 hlineto
            116 334 rlineto
            559 hlineto
            -487 209 rmoveto
            207 597 207 -597 rlineto
            endchar
          </CharString>
          <CharString index="4">
            rmoveto
            -77 -60 -29 -40 -41 hvcurveto
            145 21 106 46 156 hhcurveto
            11 155 -28 hlineto
            -270 -188 -142 -301 hvcurveto
            -51 vlineto
            -211 130 -109 189 181 122 117 156 152 -86 112 -166 vhcurveto
            -56 -386 rmoveto
            -78 -48 45 97 hvcurveto
            36 vlineto
            31 20 46 27 59 hhcurveto
            76 44 -40 -74 -68 -48 -54 -71 hvcurveto
            endchar
          </CharString>
          <CharString index="5">
            rmoveto
            477 vlineto
            249 -177 124 -244 -274 -174 -161 -172 3 callgsubr
            hlineto
            82 72 63 113 125 61 -72 -111 vhcurveto
            -70 -150 38 callsubr
            -179 -126 -231 return
          </CharString>
          <CharString index="6">
            -277 278 rlineto
            -146 hlineto
            -273 -276 rlineto
            -13 196 vlineto
            return
          </CharString>
          <CharString index="7">
            rmoveto
            153 vlineto
            224 -124 106 -181 -179 -124 -106 -224 vhcurveto
            -153 vlineto
            -224 125 -104 180 180 123 104 224 vhcurveto
            -188 165 rmoveto
            -175 vlineto
            -121 -43 -46 -72 -73 -43 46 121 vhcurveto
            175 vlineto
            118 43 48 71 73 44 -48 -118 vhcurveto
            endchar
          </CharString>
          <CharString index="8">
            vstem
            1264 -55 callgsubr
            -285 hlineto
            -240 -459 -325 459 rlineto
            -284 hlineto
            260 -368 rlineto
            -149 -70 -65 -127 -213 vvcurveto
            -411 245 514 vlineto
            76 21 55 46 39 vhcurveto
            484 -684 rlineto
            283 hlineto
            -361 510 rlineto
            return
          </CharString>
          <CharString index="9">
            -11 callgsubr
            303 rlineto
            -281 -76 callsubr
            return
          </CharString>
          <CharString index="10">
            76 -20 200 468 200 428 2 callgsubr
            104 249 -217 249 396 249 -218 250 hintmask 11110010
            827 750 rmoveto
            hintmask 11101100
            125 65 78 116 141 vvcurveto
            260 -187 144 -260 -260 -187 -144 -260 -141 77 -115 124 -65 vhcurveto
            hintmask 11110010
            -143 -66 -90 -127 -161 vvcurveto
            -271 207 -146 272 273 206 146 271 161 -91 126 -144 66 vhcurveto
            hintmask 11101100
            -244 526 rmoveto
            122 76 -87 -126 -129 -75 -86 -123 -122 -76 86 129 131 76 82 122 hvcurveto
            hintmask 11110010
            -1096 vmoveto
            -142 -88 87 144 143 88 94 140 139 92 -94 -143 -144 -86 -87 -143 hvcurveto
            endchar
          </CharString>
          <CharString index="11">
            rmoveto
            hintmask 11101100
            84 32 50 61 77 vvcurveto
            147 -125 78 -183 -160 -135 -81 -142 vhcurveto
            189 hlineto
            45 48 27 63 82 32 -41 -45 -58 -40 -38 -83 vhcurveto
            -88 -130 88 hlineto
            hintmask 11110010
            85 52 -27 -74 -54 -40 -42 -83 -78 -49 41 49 hvcurveto
            -190 hlineto
            -172 157 -69 150 183 139 84 148 99 -52 59 -96 26 vhcurveto
            endchar
          </CharString>
          <CharString index="12">
            rmoveto
            -79 callgsubr
            hintmask 11010101
            -100 callgsubr
            -17 callsubr
            hintmask 11101010
            127 97 109 149 hvcurveto
            hintmask 11101001
            return
          </CharString>
          <CharString index="13">
            -102 callsubr
            hvcurveto
            return
          </CharString>
          <CharString index="14">
            -64 -82 callgsubr
            651 253 vstem
            651 hmoveto
            253 791 hlineto
            250 -161 148 -269 vhcurveto
            -393 -199 378 hlineto
            122 1 callsubr
          </CharString>
          <CharString index="15">
            -91 callgsubr
            -47 39 -35 52 hvcurveto
            return
          </CharString>
          <CharString index="16">
            151 -369 vlineto
            136 109 rlineto
            135 111 72 73 113 vvcurveto
            152 -111 91 -190 -189 -115 -122 -147 vhcurveto
            189 hlineto
            65 39 53 83 68 36 -38 -55 -36 -30 -59 -80 -71 vhcurveto
            -287 -263 rlineto
            -127 vlineto
            endchar
          </CharString>
          <CharString index="17">
            253 vstem
            675 -23 rmoveto
            312 208 221 331 hvcurveto
            129 vlineto
            357 -204 201 -352 -176 -224 -31 -47 -159 vhcurveto
            49 -187 55 16 80 20 44 7 rlinecurve
            2 -4 -5 -3 -4 -3 -5 -5 rlinecurve
            -77 -65 -65 -154 2 -136 rrcurveto
            -95 vlineto
            -331 4 209 -221 306 hhcurveto
            211 vmoveto
            -159 -107 136 204 hvcurveto
            112 vlineto
            232 3 97 135 160 hhcurveto
            171 102 -130 -223 hvcurveto
            -126 vlineto
            -204 -107 -136 -160 vhcurveto
            return
          </CharString>
          <CharString index="18">
            rmoveto
            -218 -726 -225 726 rlineto
            -269 hlineto
            380 -1079 -34 -91 rlineto
            -105 -36 -54 -37 -119 hhcurveto
            -11 -22 1 1 -13 hvcurveto
            -191 vlineto
            -9 35 40 -9 44 hhcurveto
            214 83 165 108 39 hvcurveto
            431 1246 rlineto
            endchar
          </CharString>
          <CharString index="19">
            -195 -71 callgsubr
            hlineto
            return
          </CharString>
          <CharString index="20">
            rmoveto
            302 499 200 -499 262 583 201 -832 -1165 834 200 vlineto
            endchar
          </CharString>
          <CharString index="21">
            rmoveto
            323 209 161 368 hvcurveto
            678 -830 -199 576 -527 vlineto
            -182 -100 -98 -207 -3 vhcurveto
            -77 -91 12 26 -106 hvcurveto
            -40 -187 rlineto
            -32 124 115 -17 104 hhcurveto
            return
          </CharString>
          <CharString index="22">
            -91 -54 -60 -78 -76 54 -60 91 90 54 60 76 78 -54 60 -90 hvcurveto
            return
          </CharString>
          <CharString index="23">
            rlineto
            105 -8 45 -17 -59 vvcurveto
            -63 -57 -25 -77 vhcurveto
            7 -142 rlineto
            217 113 91 135 115 -76 45 -74 13 hvcurveto
            return
          </CharString>
          <CharString index="24">
            -38 callgsubr
            163 hmoveto
            251 hlineto
            79 740 rlineto
            169 18 78 98 120 hhcurveto
            146 82 -101 -184 hvcurveto
            -523 -252 -199 506 690 vlineto
            345 -2 -182 181 -343 hhcurveto
            -175 -218 -38 -55 -153 hvcurveto
            56 -186 60 22 94 26 55 9 rlinecurve
            2 -4 -5 -3 -7 -5 -5 -5 rlinecurve
            -60 -54 -49 -104 -13 -109 rrcurveto
            return
          </CharString>
          <CharString index="25">
            17 -20 199 -158 -21 507 154 253 188 return
          </CharString>
          <CharString index="26">
            797 1476 rmoveto
            -392 -318 -324 -423 -423 318 -327 392 391 319 327 423 423 -319 324 -391 hvcurveto
            -1372 vmoveto
            -325 -263 272 353 353 263 269 325 324 263 -269 -353 -353 -263 -272 -324 hvcurveto
            return
          </CharString>
          <CharString index="27">
            -185 153 -139 215 127 94 55 66 63 return
          </CharString>
          <CharString index="28">
            249 vstem
            return
          </CharString>
          <CharString index="29">
            -56 callgsubr
            127 97 109 149 hvcurveto
            -79 callgsubr
            return
          </CharString>
          <CharString index="30">
            -59 callgsubr
            -9 callgsubr
            return
          </CharString>
          <CharString index="31">
            hlineto
            271 -303 rlineto
            return
          </CharString>
          <CharString index="32">
            193 -40 37 -48 -69 vvcurveto
            -76 -67 -54 -125 -107 -108 47 130 -6 vhcurveto
            -241 hlineto
            -178 161 -184 297 267 173 136 192 197 -151 83 -249 52 vhcurveto
            -171 36 -49 38 70 vvcurveto
            71 58 62 119 vhcurveto
            return
          </CharString>
          <CharString index="33">
            151 236 150 122 155 hstem
            77 188 245 189 vstem
            447 return
          </CharString>
          <CharString index="34">
            151 197 130 182 151 hstemhm
            54 190 -178 189 225 189 -175 189 hintmask 11110010
            535 return
          </CharString>
          <CharString index="35">
            275 21 -21 334 209 913 -20 return
          </CharString>
          <CharString index="36">
            -21 -69 callgsubr
            return
          </CharString>
          <CharString index="37">
            -64 callsubr
            -48 return
          </CharString>
          <CharString index="38">
            -233 -95 188 292 hvcurveto
            117 vlineto
            307 113 172 225 208 76 -109 -184 21 vhcurveto
            258 hlineto
            292 -29 -183 211 -351 hhcurveto
            -366 -233 -270 -421 hvcurveto
            -115 vlineto
            return
          </CharString>
          <CharString index="39">
            1456 return
          </CharString>
          <CharString index="40">
            -138 216 139 vlineto
            118 37 90 55 83 vhcurveto
            -125 78 rlineto
            -108 -89 -75 -155 -126 vvcurveto
            return
          </CharString>
          <CharString index="41">
            -165 -184 165 -898 249 898 return
          </CharString>
          <CharString index="42">
            rmoveto
            106 -633 -152 434 vlineto
            -338 -637 18 callsubr
          </CharString>
          <CharString index="43">
            35 -52 -53 callsubr
            return
          </CharString>
          <CharString index="44">
            -188 -78 129 233 hvcurveto
            73 vlineto
            238 91 124 179 173 63 -88 -125 13 3 callgsubr
            hlineto
            239 -25 -162 174 -311 hhcurveto
            -316 -202 -216 -347 hvcurveto
            -72 vlineto
            return
          </CharString>
          <CharString index="45">
            151 508 152 hstem
            75 189 231 188 vstem
            683 return
          </CharString>
          <CharString index="46">
            rmoveto
            127 95 89 115 114 -95 94 -127 -127 -94 -94 -114 8 callsubr
            hvcurveto
            317 vmoveto
            67 45 -52 -61 -59 -45 -51 -67 -66 -45 52 58 61 45 52 66 hvcurveto
            return
          </CharString>
          <CharString index="47">
            rmoveto
            101 89 72 148 143 vvcurveto
            1 179 rlineto
            -228 -201 hlineto
            -102 -37 -107 -62 -85 vhcurveto
            return
          </CharString>
          <CharString index="48">
            324 -20 213 1069 214 return
          </CharString>
          <CharString index="49">
            1400 1342 rmoveto
            53 31 callgsubr
            -53 -51 -40 -35 -48 -45 40 -37 51 hvcurveto
            -983 -7 callsubr
            return
          </CharString>
          <CharString index="50">
            208 440 204 395 209 return
          </CharString>
          <CharString index="51">
            167 -78 167 hstemhm
            return
          </CharString>
          <CharString index="52">
            vstem
            1108 -55 callgsubr
            -285 hlineto
            -219 -432 -277 432 rlineto
            -284 hlineto
            672 -989 rlineto
            -586 -200 912 119 hlineto
            -288 416 rlineto
            return
          </CharString>
          <CharString index="53">
            -23 callgsubr
            -52 -39 -35 -48 -45 -9 callgsubr
            return
          </CharString>
          <CharString index="54">
            -52 -39 -35 return
          </CharString>
          <CharString index="55">
            788 -19 vlineto
            -367 -120 rlineto
            -148 vlineto
            199 48 rlineto
            -568 vlineto
            endchar
          </CharString>
          <CharString index="56">
            165 305 199 return
          </CharString>
          <CharString index="57">
            rmoveto
            47 30 callsubr
            -47 -46 39 -37 52 -63 callgsubr
            vhcurveto
            endchar
          </CharString>
          <CharString index="58">
            -21 callgsubr
            796 201 return
          </CharString>
          <CharString index="59">
            133 119 151 hstem
            498 189 vstem
            97 return
          </CharString>
          <CharString index="60">
            -68 callsubr
            -258 -48 callgsubr
            vlineto
            endchar
          </CharString>
          <CharString index="61">
            253 vstem
            847 hmoveto
            253 748 hlineto
            286 -168 155 -307 vhcurveto
            -479 -199 462 hlineto
            164 75 -72 -160 hvcurveto
            return
          </CharString>
          <CharString index="62">
            rmoveto
            -85 callsubr
            return
          </CharString>
          <CharString index="63">
            146 259 return
          </CharString>
          <CharString index="64">
            rmoveto
            1 176 rlineto
            -222 -185 hlineto
            -129 -47 -89 -55 -90 vhcurveto
            133 -77 rlineto
            116 96 74 161 137 vvcurveto
            endchar
          </CharString>
          <CharString index="65">
            94 21 -21 246 188 return
          </CharString>
          <CharString index="66">
            201 -13 callgsubr
            return
          </CharString>
          <CharString index="67">
            rmoveto
            -330 685 rlineto
            -287 hlineto
            487 -921 rlineto
            -535 261 535 vlineto
            487 921 rlineto
            -287 hlineto
            endchar
          </CharString>
          <CharString index="68">
            1165 return
          </CharString>
          <CharString index="69">
            1013 -55 callgsubr
            -686 347 -254 -546 666 hlineto
            -409 -990 rlineto
            270 hlineto
            413 1028 rlineto
            return
          </CharString>
          <CharString index="70">
            rmoveto
            -273 hlineto
            -266 -525 -265 525 rlineto
            -274 hlineto
            411 -747 rlineto
            -418 249 405 vlineto
            endchar
          </CharString>
          <CharString index="71">
            -68 callsubr
            -257 -1026 vlineto
            -643 1026 rlineto
            -259 -40 callgsubr
            1024 hlineto
            641 -1024 rlineto
            endchar
          </CharString>
          <CharString index="72">
            34 callgsubr
            511 -79 callsubr
            return
          </CharString>
          <CharString index="73">
            21 -21 898 184 271 204 hstem
            208 249 return
          </CharString>
          <CharString index="74">
            303 hstem
            return
          </CharString>
          <CharString index="75">
            260 693 260 vstem
            return
          </CharString>
          <CharString index="76">
            -20 173 165 hstemhm
            172 245 return
          </CharString>
          <CharString index="77">
            -72 callgsubr
            hstem
            return
          </CharString>
          <CharString index="78">
            hstem
            -44 callsubr
            return
          </CharString>
          <CharString index="79">
            rmoveto
            245 430 hlineto
            104 8 71 14 56 vhcurveto
            -204 hlineto
            -24 -39 -39 -63 -152 vvcurveto
            endchar
          </CharString>
          <CharString index="80">
            -426 196 210 204 715 203 hstem
            return
          </CharString>
          <CharString index="81">
            -38 callgsubr
            60 -55 callgsubr
            -199 532 -990 254 990 204 199 vlineto
            return
          </CharString>
          <CharString index="82">
            152 hstem
            54 633 vstem
            687 return
          </CharString>
          <CharString index="83">
            hstem
            78 248 563 248 vstem
            return
          </CharString>
          <CharString index="84">
            209 -29 callsubr
            return
          </CharString>
          <CharString index="85">
            rlineto
            199 return
          </CharString>
          <CharString index="86">
            1516 -92 callgsubr
            return
          </CharString>
          <CharString index="87">
            -68 callsubr
            -20 return
          </CharString>
          <CharString index="88">
            27 callgsubr
            622 -416 rmoveto
            250 1605 -805 -199 555 hlineto
            return
          </CharString>
          <CharString index="89">
            1362 rmoveto
            537 135 -537 hlineto
            return
          </CharString>
          <CharString index="90">
            hintmask 11101001
            -56 callgsubr
            return
          </CharString>
          <CharString index="91">
            -1090 1342 165 hstem
            return
          </CharString>
          <CharString index="92">
            hstemhm
            88 -11 callsubr
            return
          </CharString>
          <CharString index="93">
            70 -68 -116 hvcurveto
            return
          </CharString>
          <CharString index="94">
            1189 -20 hstem
            return
          </CharString>
          <CharString index="95">
            -21 211 1075 212 hstem
            105 258 776 257 vstem
            1396 return
          </CharString>
          <CharString index="96">
            249 394 249 return
          </CharString>
          <CharString index="97">
            hstem
            131 -79 callsubr
            return
          </CharString>
          <CharString index="98">
            162 177 return
          </CharString>
          <CharString index="99">
            -172 -63 144 184 -2 callgsubr
            204 65 170 172 return
          </CharString>
          <CharString index="100">
            -153 -78 callgsubr
            return
          </CharString>
          <CharString index="101">
            315 -2 callgsubr
            329 return
          </CharString>
          <CharString index="102">
            -21 899 203 return
          </CharString>
          <CharString index="103">
            186 rmoveto
            -67 -45 20 97 hvcurveto
            595 190 184 -190 return
          </CharString>
          <CharString index="104">
            -158 -177 return
          </CharString>
          <CharString index="105">
            -579 21 -21 1263 303 -10 callsubr
            return
          </CharString>
          <CharString index="106">
            -548 21 -21 1225 -33 callsubr
            143 -79 callsubr
            return
          </CharString>
          <CharString index="107">
            -20 203 -162 -5 callsubr
            hstemhm
            33 callgsubr
            return
          </CharString>
          <CharString index="108">
            -14 callsubr
            endchar
          </CharString>
          <CharString index="109">
            200 hstem
            return
          </CharString>
          <CharString index="110">
            78 249 return
          </CharString>
          <CharString index="111">
            15 callgsubr
            hlineto
            hintmask 10111000
            -463 -1352 rmoveto
            -172 return
          </CharString>
          <CharString index="112">
            1557 rmoveto
            -264 -152 -135 -246 hvcurveto
            -94 return
          </CharString>
          <CharString index="113">
            173 hlineto
            257 140 -170 -312 hvcurveto
            endchar
          </CharString>
          <CharString index="114">
            -20 200 719 203 hstem
            return
          </CharString>
          <CharString index="115">
            -115 94 -89 127 return
          </CharString>
          <CharString index="116">
            110 223 110 return
          </CharString>
          <CharString index="117">
            34 33 -3 -6 26 return
          </CharString>
          <CharString index="118">
            199 hstem
            return
          </CharString>
          <CharString index="119">
            76 -20 201 584 201 293 205 hstem
            return
          </CharString>
          <CharString index="120">
            1515 rmoveto
            -79 callgsubr
            return
          </CharString>
          <CharString index="121">
            1233 return
          </CharString>
          <CharString index="122">
            -180 45 -67 43 76 vvcurveto
            73 62 66 139 return
          </CharString>
          <CharString index="123">
            164 391.53 192.47 return
          </CharString>
          <CharString index="124">
            120 91 43 75 67 vhcurveto
            return
          </CharString>
          <CharString index="125">
            -22 callsubr
            hlineto
            endchar
          </CharString>
          <CharString index="126">
            -1082 249 return
          </CharString>
          <CharString index="127">
            117 249 return
          </CharString>
          <CharString index="128">
            207 -12 -20 32 -20 hstemhm
            172 254 return
          </CharString>
          <CharString index="129">
            -258 hlineto
            -185 -23 -78 -101 -213 hhcurveto
            return
          </CharString>
          <CharString index="130">
            -249 hlineto
            -137 -14 -70 -69 -168 hhcurveto
            return
          </CharString>
          <CharString index="131">
            137 799 hstem
            return
          </CharString>
          <CharString index="132">
            -69 callgsubr
            hstem
            return
          </CharString>
          <CharString index="133">
            1102 rmoveto
            return
          </CharString>
          <CharString index="134">
            289 hstem
            return
          </CharString>
          <CharString index="135">
            1248 return
          </CharString>
          <CharString index="136">
            52 38 35 47 53 -45 8 -10 117 return
          </CharString>
          <CharString index="137">
            -39 -64 callsubr
            return
          </CharString>
          <CharString index="138">
            hstem
            32 callgsubr
            vstem
            return
          </CharString>
          <CharString index="139">
            8 1167 return
          </CharString>
          <CharString index="140">
            hvcurveto
            249 hlineto
            return
          </CharString>
          <CharString index="141">
            209 hstem
            return
          </CharString>
          <CharString index="142">
            -56 -187 rcurveline
            -62 166 151 return
          </CharString>
          <CharString index="143">
            -176 -184 176 -612 vlineto
            return
          </CharString>
          <CharString index="144">
            -297 200 -199 298 vhcurveto
            return
          </CharString>
          <CharString index="145">
            vlineto
            -314 return
          </CharString>
          <CharString index="146">
            -1090 1163 158 hstem
            return
          </CharString>
          <CharString index="147">
            0 208 1039 34 callsubr
            return
          </CharString>
          <CharString index="148">
            -14 207 -175 -21 24 -21 return
          </CharString>
          <CharString index="149">
            rmoveto
            206 -867 -206 vlineto
            return
          </CharString>
        <CharString name=".notdef">
          261 -555 186 90 126 90 62 89 127 89 162 89 65 151 60 91 63 89 100 89 73 92 97 92 70 89 100 89 181 hstemhm
          251 200 89 89 -89 270 -89 89 89 208 hintmask 111111111111111101100000
          1107 2146 rmoveto
          -856 -2701 856 hlineto
          -208 2520 rmoveto
          -89 -178 -100 178 -89 -448 89 178 100 -175 89 vlineto
          267 -348 rmoveto
          -189 178 -92 -448 281 vlineto
          178 -92 rmoveto
          -89 -97 89 hlineto
          270 -165 rmoveto
          -89 -178 -189 -270 89 178 100 -178 89 vlineto
          448 -162 rmoveto
          -270 -448 91 359 179 vlineto
          89 -330 rmoveto
          -305 -448 305 89 -216 270 127 -89 -62 -92 151 vlineto
          270 -467 rmoveto
          -305 -448 305 vlineto
          hintmask 111100000000001010100000
          359 -89 rmoveto
          -270 -127 270 hlineto
          89 -151 rmoveto
          -90 -86 vlineto
          -189 -126 rlineto
          275 -90 -448 90 hlineto
          189 126 rlineto
          -189 90 hlineto
          endchar
        </CharString>
        <CharString name=".null">
          -1090 endchar
        </CharString>
        <CharString name="A">
          -72 callsubr
          31 callsubr
          1079 hmoveto
          -104 callsubr
        </CharString>
        <CharString name="A.smcp">
          -42 callsubr
          hstem
          32 callsubr
          vstem
          924 hmoveto
          -103 callgsubr
        </CharString>
        <CharString name="AE">
          835 0 202 138 219 93 201 401 202 hstem
          943.5 241 vstem
          1221 202 rmoveto
          -19 450 rlineto
          533 201 -542 hlineto
          -17 401 rlineto
          640 202 -995 hlineto
          -829 -48 callgsubr
          rlineto
          296 hlineto
          182 340 rlineto
          496 hlineto
          14 -340 rlineto
          898 202 hlineto
          -1290 357 rmoveto
          342 638 27 -638 rlineto
          endchar
        </CharString>
        <CharString name="AE.smcp">
          518 0 198 60 197 53 198 261 198 hstemhm
          736.5 242.5 -220 239 hintmask 00000000
          hintmask 11110100
          1004 198 rmoveto
          -12 310 rlineto
          443 198 hlineto
          hintmask 11111000
          -451 hlineto
          -10 261 rlineto
          522 198 -897 hlineto
          -618 -1165 rlineto
          268 hlineto
          128 258 rlineto
          hintmask 11110100
          377 hlineto
          10 -258 rlineto
          778 198 hlineto
          -1068 257 rmoveto
          hintmask 11111000
          253 511 19 -511 rlineto
          endchar
        </CharString>
        <CharString name="Aacute">
          -72 callsubr
          107 303 31 callsubr
          1041 1846 rmoveto
          -282 hlineto
          -88 callsubr
          315 -1543 rmoveto
          -104 callsubr
        </CharString>
        <CharString name="Aacute.smcp">
          -42 callsubr
          829 -33 callsubr
          32 callsubr
          vstem
          949 1566 rmoveto
          -282 hlineto
          -88 callsubr
          252 -1263 rmoveto
          -103 callgsubr
        </CharString>
        <CharString name="Acircumflex">
          -72 callsubr
          122 289 31 callsubr
          686 1713 rmoveto
          151 -155 -22 callsubr
          11 hlineto
          -101 callsubr
          543 -1558 rmoveto
          -104 callsubr
        </CharString>
        <CharString name="Acircumflex.smcp">
          -42 callsubr
          844 27 callsubr
          32 callsubr
          vstem
          594 1433 rmoveto
          151 -155 -22 callsubr
          11 hlineto
          -101 callsubr
          480 -1278 rmoveto
          -103 callgsubr
        </CharString>
        <CharString name="Adieresis">
          -72 callsubr
          122 4 callgsubr
          32 callgsubr
          -560 256 hintmask 11111000
          457 1558 -88 callgsubr
          hintmask 11110100
          -89 callgsubr
          161 -1556 rmoveto
          -104 callsubr
        </CharString>
        <CharString name="Adieresis.smcp">
          -42 callsubr
          844 4 callgsubr
          32 callsubr
          -477 256 hintmask 11110000
          365 1278 -88 callgsubr
          hintmask 11101000
          -89 callgsubr
          98 -1276 rmoveto
          -103 callgsubr
        </CharString>
        <CharString name="Agrave">
          -72 callsubr
          107 303 31 callsubr
          814 1543 -98 callsubr
          471 -1543 rmoveto
          -104 callsubr
        </CharString>
        <CharString name="Agrave.smcp">
          -42 callsubr
          829 -33 callsubr
          32 callsubr
          vstem
          722 1263 -98 callsubr
          408 -1263 rmoveto
          -103 callgsubr
        </CharString>
        <CharString name="Aring">
          -72 callsubr
          91 94 223 95 hstem
          465 9 callsubr
          vstem
          686 1527 -61 callsubr
          393 -1844 rmoveto
          -104 callsubr
        </CharString>
        <CharString name="Aring.smcp">
          -42 callsubr
          813 94 223 95 hstem
          373 9 callsubr
          vstem
          594 1247 -61 callsubr
          330 -1564 rmoveto
          -103 callgsubr
        </CharString>
        <CharString name="Atilde">
          -72 callsubr
          131 -56 callsubr
          318 -44 callgsubr
          hintmask 11101110
          559 1656 rmoveto
          hintmask 11110110
          -78 callsubr
          hintmask 11101110
          -100 callgsubr
          520 -1656 rmoveto
          -104 callsubr
        </CharString>
        <CharString name="Atilde.smcp">
          -42 callsubr
          853 -56 callsubr
          226 -44 callgsubr
          hintmask 11011100
          467 1376 rmoveto
          hintmask 11101100
          -78 callsubr
          hintmask 11011100
          -100 callgsubr
          457 -1376 rmoveto
          -103 callgsubr
        </CharString>
        <CharString name="B">
          205 0 208 446 190 403 209 hstemhm
          -44 callsubr
          493 258 -224 258 hintmask 11110100
          945 758 rmoveto
          hintmask 11111000
          138 57 73 114 133 vvcurveto
          272 -190 122 -320 vhcurveto
          -500 -48 callgsubr
          537 hlineto
          hintmask 11110100
          318 189 147 279 150 -78 138 -167 44 hvcurveto
          -299 489 rmoveto
          hintmask 11111000
          172 80 -59 -142 -128 -92 -74 -158 hvcurveto
          -243 403 hlineto
          hintmask 11110100
          278 -1039 rmoveto
          -278 446 289 hlineto
          169 69 -86 -142 -129 -85 -89 -164 hvcurveto
          endchar
        </CharString>
        <CharString name="B.smcp">
          32 -19 callgsubr
          304 174 286 201 hstemhm
          -22 callgsubr
          395 250 -221 249 hintmask 11110100
          831 599 rmoveto
          hintmask 11111000
          122 45 57 95 105 vvcurveto
          218 -175 103 -286 vhcurveto
          -433 -1165 474 hlineto
          hintmask 11110100
          285 163 108 227 112 -62 117 -145 35 hvcurveto
          -270 365 rmoveto
          hintmask 11111000
          131 68 -43 -103 -92 -70 -48 -125 hvcurveto
          -200 286 hlineto
          hintmask 11110100
          225 -764 rmoveto
          -225 304 235 hlineto
          135 54 -61 -97 -84 -65 -62 -134 hvcurveto
          endchar
        </CharString>
        <CharString name="C">
          248 -20 210 1076 210 hstem
          100 261 vstem
          1261 476 rmoveto
          22 callsubr
          -69 callsubr
          -421 228 -269 361 357 190 210 286 25 vhcurveto
          endchar
        </CharString>
        <CharString name="C.smcp">
          63 -21 callgsubr
          797 2 callsubr
          78 248 vstem
          1093 390 rmoveto
          23 callsubr
          -63 callsubr
          -347 196 -215 318 308 173 167 239 20 vhcurveto
          endchar
        </CharString>
        <CharString name="C.ss06">
          311 -21 208 1081 34 callsubr
          105 259 vstem
          1317 476 rmoveto
          -259 hlineto
          -180 -26 -86 -109 -206 hhcurveto
          -227 -149 201 313 hvcurveto
          55 vlineto
          313 145 199 225 208 91 -111 -184 26 vhcurveto
          259 hlineto
          301 -30 -203 203 -351 hhcurveto
          -366 -263 -282 -441 hvcurveto
          -53 vlineto
          -441 268 -281 367 351 196 199 298 30 vhcurveto
          endchar
        </CharString>
        <CharString name="Ccedilla">
          248 -456 142 322 -21 1279 210 hstem
          100 261 354 203 vstem
          689 190 rmoveto
          -69 callsubr
          -383 189 -257 305 -43 vhcurveto
          -29 -129 -84 callsubr
          8 41 301 32 161 198 23 262 rlinecurve
          22 callsubr
          endchar
        </CharString>
        <CharString name="Ccedilla.smcp">
          63 -450 142 319 -21 991 2 callsubr
          78 248 295 203 vstem
          592 184 rmoveto
          -63 callsubr
          -312 159 -205 263 -39 vhcurveto
          -29 -126 -84 callsubr
          8 40 252 30 141 156 18 215 rlinecurve
          23 callsubr
          endchar
        </CharString>
        <CharString name="D">
          247 40 callsubr
          146 259 570 260 vstem
          578 -26 callgsubr
          -432 -48 callgsubr
          -52 callgsubr
          1039 6 callsubr
        </CharString>
        <CharString name="D.smcp">
          56 -19 callgsubr
          764 -41 callsubr
          454 -79 callsubr
          497 -12 callgsubr
          -381 -1165 -51 callgsubr
          764 14 callgsubr
        </CharString>
        <CharString name="D.ss06">
          322 40 callsubr
          152 259 633 260 vstem
          599 -26 callgsubr
          -447 -48 callgsubr
          436 hlineto
          426 290 286 421 hvcurveto
          41 vlineto
          421 -293 287 -412 vhcurveto
          445 -749 rmoveto
          -290 -155 -209 -310 vhcurveto
          -168 1039 179 hlineto
          296 158 -197 -300 hvcurveto
          endchar
        </CharString>
        <CharString name="E">
          68 0 -57 callsubr
          hstem
          146 259 vstem
          405 208 -86 callgsubr
        </CharString>
        <CharString name="E.smcp">
          -57 callgsubr
          hstem
          116 -79 callsubr
          365 200 -87 callsubr
        </CharString>
        <CharString name="Eacute">
          68 0 -57 callsubr
          94 303 -29 callsubr
          vstem
          983 1853 rmoveto
          -282 hlineto
          -88 callsubr
          -301 -1342 -86 callgsubr
        </CharString>
        <CharString name="Eacute.smcp">
          -57 callgsubr
          98 303 -13 callgsubr
          vstem
          901 1566 rmoveto
          -282 hlineto
          -88 callsubr
          -259 -1063 -87 callsubr
        </CharString>
        <CharString name="Ecircumflex">
          68 0 -57 callsubr
          109 289 -29 callsubr
          vstem
          628 1720 rmoveto
          151 -155 -22 callsubr
          11 hlineto
          -101 callsubr
          -73 -1357 -86 callgsubr
        </CharString>
        <CharString name="Ecircumflex.smcp">
          -57 callgsubr
          113 289 -13 callgsubr
          vstem
          546 1433 rmoveto
          151 -155 -22 callsubr
          11 hlineto
          -101 callsubr
          -31 -1078 -87 callsubr
        </CharString>
        <CharString name="Edieresis">
          68 0 -57 callsubr
          109 238 -29 callsubr
          327 256 vstem
          399 1565 -88 callgsubr
          -89 callgsubr
          -455 -1355 -86 callgsubr
        </CharString>
        <CharString name="Edieresis.smcp">
          -57 callgsubr
          113 238 -13 callgsubr
          285 256 vstem
          317 1278 -88 callgsubr
          -89 callgsubr
          -413 -1076 -87 callsubr
        </CharString>
        <CharString name="Egrave">
          68 0 -57 callsubr
          94 303 -29 callsubr
          vstem
          756 1550 -98 callsubr
          -145 -1342 -86 callgsubr
        </CharString>
        <CharString name="Egrave.smcp">
          -57 callgsubr
          98 303 -13 callgsubr
          vstem
          674 1263 -98 callsubr
          -103 -1063 -87 callsubr
        </CharString>
        <CharString name="Eth">
          247 0 208 442 173 424 -23 callsubr
          570 260 vstem
          578 -26 callgsubr
          -432 -633 -156 -173 156 -650 -52 callgsubr
          442 258 173 -258 424 6 callsubr
        </CharString>
        <CharString name="Eth.smcp">
          56 -19 callgsubr
          298 173 293 -41 callsubr
          454 -79 callsubr
          497 -12 callgsubr
          -381 -494 -209 -173 209 -498 -51 callgsubr
          298 215 173 -215 293 14 callgsubr
        </CharString>
        <CharString name="Euro">
          76 -20 207 339 142 128 142 330 208 hstem
          265 259 vstem
          843 187 rmoveto
          -187 -124 96 243 -8 hvcurveto
          353 142 -353 128 353 142 -352 hlineto
          229 15 118 101 188 hhcurveto
          69 72 -14 -19 59 hvcurveto
          29 210 rlineto
          19 -79 -77 12 -83 hhcurveto
          -323 -227 -183 -355 -20 hvcurveto
          -172 -142 171 -128 -171 -142 171 hlineto
          -363 10 230 -183 321 hhcurveto
          87 85 11 19 77 hvcurveto
          -29 209 rlineto
          -21 -62 -69 -11 -72 hhcurveto
          endchar
        </CharString>
        <CharString name="Euro.smcp">
          -73 -21 callgsubr
          202 150 89 150 208 2 callgsubr
          71 875 -730 249 hintmask 11111000
          719 184 rmoveto
          -144 -80 68 134 -23 hvcurveto
          378 150 hlineto
          hintmask 11110100
          -385 89 385 150 -377 hlineto
          137 23 78 71 143 hhcurveto
          79 58 -8 -20 70 hvcurveto
          22 195 rlineto
          21 -81 -63 12 -85 hhcurveto
          -280 -179 -147 -261 -35 hvcurveto
          -152 -150 145 -89 -145 -150 151 hlineto
          -258 34 181 -144 282 hhcurveto
          84 68 11 20 75 hvcurveto
          -27 196 rlineto
          hintmask 11111000
          -16 -68 -54 -11 -78 hhcurveto
          endchar
        </CharString>
        <CharString name="F">
          35 21 -21 614 208 425 -23 callsubr
          vstem
          1074 1247 rmoveto
          209 -928 -40 callgsubr
          614 585 208 -585 425 vlineto
          endchar
        </CharString>
        <CharString name="F.smcp">
          -124 21 -21 472 201 291 -41 callsubr
          vstem
          927 964 rmoveto
          201 -811 26 callgsubr
          472 497 201 -497 291 vlineto
          endchar
        </CharString>
        <CharString name="G">
          305 -20 208 366 196 518 208 hstem
          105 261 642 259 vstem
          1267 189 rmoveto
          561 -555 -196 296 -281 vlineto
          -36 -34 -66 -49 -171 hhcurveto
          -232 -139 175 317 hvcurveto
          97 vlineto
          313 112 178 233 195 82 -109 -150 24 vhcurveto
          254 hlineto
          272 -35 -167 195 -358 hhcurveto
          -375 -226 -256 -445 hvcurveto
          -95 vlineto
          -445 255 -255 368 325 151 128 81 63 vhcurveto
          endchar
        </CharString>
        <CharString name="G.smcp">
          100 -21 callgsubr
          250 181 366 2 callsubr
          83 250 517 -79 callsubr
          1099 146 rmoveto
          469 -494 -181 245 -195 vlineto
          -23 -28 -56 -32 -129 hhcurveto
          -194 -110 124 240 hvcurveto
          70 vlineto
          239 98 124 182 158 65 -73 -116 20 vhcurveto
          243 hlineto
          228 -28 -143 161 -321 hhcurveto
          -319 -205 -205 -360 hvcurveto
          -68 vlineto
          -360 220 -204 322 276 140 97 65 58 vhcurveto
          endchar
        </CharString>
        <CharString name="G.ss06">
          351 -21 208 360 195 526 34 callsubr
          105 259 696 28 callgsubr
          1318 188 rmoveto
          554 -545 -195 287 -279 vlineto
          -36 -33 -88 -45 -159 hhcurveto
          -244 -172 200 319 hvcurveto
          40 vlineto
          319 155 203 225 204 89 -109 -150 27 vhcurveto
          254 hlineto
          272 -36 -177 196 -366 hhcurveto
          -367 -267 -281 -452 hvcurveto
          -38 vlineto
          -446 290 -281 385 308 170 128 81 60 vhcurveto
          endchar
        </CharString>
        <CharString name="H">
          365 21 -21 645 207 604 -20 -29 callsubr
          643 28 callgsubr
          1048 -26 callgsubr
          -604 -643 604 -259 -40 callgsubr
          645 643 -645 258 -68 callsubr
          vlineto
          endchar
        </CharString>
        <CharString name="H.smcp">
          155 21 -21 472 -41 callsubr
          516 -79 callsubr
          881 -12 callgsubr
          -492 -516 492 -249 26 callgsubr
          472 516 -472 249 -39 callsubr
          vlineto
          endchar
        </CharString>
        <CharString name="I">
          -16 callgsubr
          hstem
          162 28 callgsubr
          420 hmoveto
          -47 callsubr
        </CharString>
        <CharString name="I.smcp">
          -579 21 -21 -10 callsubr
          380 hmoveto
          -47 callgsubr
        </CharString>
        <CharString name="Iacute">
          -16 callgsubr
          114 -33 callsubr
          162 28 callgsubr
          363 1853 rmoveto
          -88 callsubr
          277 303 rlineto
          -225 -1853 rmoveto
          -47 callsubr
        </CharString>
        <CharString name="Iacute.smcp">
          -2 callsubr
          329 1566 rmoveto
          -88 callsubr
          277 303 rlineto
          -231 -1566 rmoveto
          -47 callgsubr
        </CharString>
        <CharString name="Icircumflex">
          -16 callgsubr
          129 27 callsubr
          162 28 callgsubr
          640 1576 rmoveto
          -101 callsubr
          150 155 151 -155 -22 callsubr
          hlineto
          -220 -1565 rmoveto
          -47 callsubr
        </CharString>
        <CharString name="Icircumflex.smcp">
          -579 21 -21 1278 289 -10 callsubr
          606 1289 rmoveto
          -101 callsubr
          150 155 151 -155 -22 callsubr
          hlineto
          -226 -1278 rmoveto
          -47 callgsubr
        </CharString>
        <CharString name="Idieresis">
          -16 callgsubr
          129 4 callgsubr
          162 258 -26 256 hintmask 11110000
          61 1803 -92 callgsubr
          hintmask 11101000
          -94 callgsubr
          hintmask 11110000
          -102 -1802 rmoveto
          -47 callsubr
        </CharString>
        <CharString name="Idieresis.smcp">
          -579 21 -21 1278 4 callgsubr
          131 249 -20 256 hintmask 11100000
          27 -21 callsubr
          hintmask 11010000
          -94 callgsubr
          hintmask 11100000
          -108 -1515 rmoveto
          -47 callgsubr
        </CharString>
        <CharString name="Igrave">
          -16 callgsubr
          114 -33 callsubr
          162 28 callgsubr
          418 1550 -98 callsubr
          208 -1550 rmoveto
          -47 callsubr
        </CharString>
        <CharString name="Igrave.smcp">
          -2 callsubr
          384 1263 -98 callsubr
          202 -1263 rmoveto
          -47 callgsubr
        </CharString>
        <CharString name="J">
          48 -20 208 1268 -20 hstem
          45 259 437 28 callgsubr
          741 -26 callgsubr
          -1019 vlineto
          -161 -90 -88 -129 -129 -89 63 167 vhcurveto
          -259 hlineto
          -299 200 -139 277 275 202 168 289 vhcurveto
          1019 vlineto
          endchar
        </CharString>
        <CharString name="J.smcp">
          -107 -16 2 callsubr
          36 250 336 27 callgsubr
          622 -12 callgsubr
          -796 vlineto
          -122 -60 -63 -98 -111 -67 50 120 vhcurveto
          -250 hlineto
          -253 178 -117 250 230 178 143 242 vhcurveto
          796 vlineto
          endchar
        </CharString>
        <CharString name="K">
          203 -75 callgsubr
          -29 callsubr
          vstem
          998 hmoveto
          308 hlineto
          -566 812 538 644 rlineto
          -315 hlineto
          -418 -506 -140 -174 rlineto
          680 -259 -40 callgsubr
          449 vlineto
          164 175 rlineto
          endchar
        </CharString>
        <CharString name="K.alt">
          231 21 -21 620 229 607 -20 hstem
          152 259 vstem
          1019 hmoveto
          311 hlineto
          -537 760 493 696 rlineto
          -318 hlineto
          -419 -607 rlineto
          -138 607 -259 -40 callgsubr
          620 173 hlineto
          endchar
        </CharString>
        <CharString name="K.alt2">
          246 -75 callgsubr
          hstem
          152 259 vstem
          1300 hmoveto
          -632 740 597 716 rlineto
          -321 hlineto
          -528 -641 rlineto
          -5 641 -259 -40 callgsubr
          665 hlineto
          568 -665 rlineto
          endchar
        </CharString>
        <CharString name="K.smcp">
          27 21 -21 -13 callgsubr
          vstem
          833 hmoveto
          298 hlineto
          -463 644 442 521 rlineto
          -309 hlineto
          -327 -377 -109 -134 rlineto
          511 -249 26 callgsubr
          340 vlineto
          135 130 rlineto
          endchar
        </CharString>
        <CharString name="L">
          19 0 208 28 callsubr
          -20 -29 callsubr
          vstem
          405 208 rmoveto
          28 callsubr
          -259 -48 callgsubr
          917 208 vlineto
          endchar
        </CharString>
        <CharString name="L.smcp">
          -136 0 200 -13 callgsubr
          vstem
          365 200 rmoveto
          965 -249 -1165 801 200 vlineto
          endchar
        </CharString>
        <CharString name="M">
          703 -75 callgsubr
          -29 callsubr
          982 28 callgsubr
          1645 -26 callgsubr
          -336 hlineto
          -413 -1108 -414 1108 rlineto
          -336 -40 callgsubr
          470 hlineto
          -26 645 424 -1115 rlineto
          185 hlineto
          425 1118 -26 -648 rlineto
          -470 258 vlineto
          endchar
        </CharString>
        <CharString name="M.smcp">
          453 21 -21 -13 callgsubr
          812 -79 callsubr
          1426 -12 callgsubr
          -326 hlineto
          -329 -835 -330 835 rlineto
          -325 26 callgsubr
          305 hlineto
          -26 571 346 -876 rlineto
          171 hlineto
          347 879 -26 -574 rlineto
          -305 249 vlineto
          endchar
        </CharString>
        <CharString name="N">
          364 -75 callgsubr
          -29 callsubr
          643 257 vstem
          1305 hmoveto
          -36 callsubr
        </CharString>
        <CharString name="N.smcp">
          154 21 -21 -13 callgsubr
          515 -79 callsubr
          1129 hmoveto
          -36 callgsubr
        </CharString>
        <CharString name="Ntilde">
          364 -75 callgsubr
          131 -56 callsubr
          -44 callsubr
          -47 -44 callgsubr
          -46 257 hintmask 00000000
          hintmask 11101010
          1094 1825 -95 callsubr
          211 -1825 rmoveto
          -36 callsubr
        </CharString>
        <CharString name="Ntilde.smcp">
          154 21 -21 1287 -56 callsubr
          -22 callgsubr
          -109 -44 callgsubr
          -112 -14 callgsubr
          hintmask 11010100
          992 1545 rmoveto
          -79 callgsubr
          hintmask 10101010
          -100 callgsubr
          hintmask 11010010
          -56 callgsubr
          hintmask 11010100
          127 97 109 149 hvcurveto
          hintmask 11010010
          137 -1545 rmoveto
          -36 callgsubr
        </CharString>
        <CharString name="O">
          -59 callsubr
          hstem
          100 -32 callsubr
          1313 691 -107 callgsubr
        </CharString>
        <CharString name="O.smcp">
          -64 callgsubr
          -24 callsubr
          1137 557 -107 callsubr
        </CharString>
        <CharString name="O.ss06">
          413 -12 callsubr
          707 rmoveto
          42 vlineto
          418 -272 310 -374 -368 -277 -310 -418 vhcurveto
          -42 vlineto
          -419 279 -309 368 374 270 309 419 vhcurveto
          -257 44 rmoveto
          -44 vlineto
          -299 -154 -218 -233 -226 -163 218 299 vhcurveto
          44 vlineto
          297 161 217 226 232 157 -217 -297 vhcurveto
          endchar
        </CharString>
        <CharString name="OE">
          884 -21 200 -179 -57 callsubr
          -179 2 callgsubr
          100 249 538 259 hintmask 01110110
          1146 208 rmoveto
          440 595 204 -595 395 690 209 -863 vlineto
          hintmask 10101110
          11 -89 -100 10 -101 hhcurveto
          -347 -236 -244 -353 hvcurveto
          -304 vlineto
          -353 238 -244 347 vhcurveto
          hintmask 01110110
          101 98 11 10 89 hvcurveto
          869 208 hlineto
          hintmask 10101110
          -1493 368 rmoveto
          306 vlineto
          262 129 133 205 71 69 -6 -8 64 vhcurveto
          -1070 vlineto
          -8 -64 -68 -6 -70 hhcurveto
          -205 -131 134 263 hvcurveto
          endchar
        </CharString>
        <CharString name="Oacute">
          -59 callsubr
          67 -33 callsubr
          100 -32 callsubr
          781 1846 rmoveto
          -88 callsubr
          277 303 rlineto
          250 -1155 -107 callgsubr
        </CharString>
        <CharString name="Oacute.smcp">
          -64 callgsubr
          82 303 -24 callsubr
          680 1566 rmoveto
          -88 callsubr
          277 303 rlineto
          175 -1009 -107 callsubr
        </CharString>
        <CharString name="Ocircumflex">
          -59 callsubr
          82 27 callsubr
          100 -32 callsubr
          1058 1569 rmoveto
          -101 callsubr
          150 155 151 -155 -22 callsubr
          hlineto
          255 -867 -107 callgsubr
        </CharString>
        <CharString name="Ocircumflex.smcp">
          -64 callgsubr
          97 289 -24 callsubr
          957 1289 rmoveto
          -101 callsubr
          150 155 151 -155 -22 callsubr
          hlineto
          180 -721 -107 callsubr
        </CharString>
        <CharString name="Odieresis">
          -59 callsubr
          82 4 callgsubr
          100 260 452 256 -15 260 hintmask 11110100
          479 1796 -92 callgsubr
          hintmask 11111000
          -94 callgsubr
          hintmask 11110100
          373 -1104 -107 callgsubr
        </CharString>
        <CharString name="Odieresis.smcp">
          -64 callgsubr
          97 4 callgsubr
          78 248 385 256 -78 248 hintmask 11110100
          378 -21 callsubr
          hintmask 11111000
          -94 callgsubr
          hintmask 11110100
          298 -958 -107 callsubr
        </CharString>
        <CharString name="Ograve">
          -59 callsubr
          67 -33 callsubr
          100 -32 callsubr
          836 1543 -98 callsubr
          683 -852 -107 callgsubr
        </CharString>
        <CharString name="Ograve.smcp">
          -64 callgsubr
          82 303 -24 callsubr
          735 1263 -98 callsubr
          608 -706 -107 callsubr
        </CharString>
        <CharString name="Oslash">
          322 -20 213 1069 214 hstem
          104 -32 callsubr
          1156 1278 rmoveto
          145 240 rlineto
          -169 hlineto
          -85 -141 rlineto
          65 -94 -114 34 -129 hhcurveto
          -356 -250 -270 -442 hvcurveto
          -73 vlineto
          -237 73 -188 122 -123 vhcurveto
          -144 -238 rlineto
          171 hlineto
          90 149 rlineto
          -48 86 100 -26 110 hhcurveto
          362 243 269 442 hvcurveto
          73 vlineto
          216 -59 176 -102 122 vhcurveto
          -792 -587 rmoveto
          75 vlineto
          323 132 173 214 88 73 -28 -54 56 vhcurveto
          -495 -818 rlineto
          -44 82 -24 110 137 vvcurveto
          693 hmoveto
          -323 -124 -175 -221 -69 -60 18 35 -51 vhcurveto
          482 797 rlineto
          28 -74 15 -93 -110 vvcurveto
          endchar
        </CharString>
        <CharString name="Oslash.smcp">
          -64 callgsubr
          30 -20 hstemhm
          78 248 563 248 hintmask 10111000
          998 1019 rmoveto
          134 192 rlineto
          -164 hlineto
          hintmask 11111000
          -74 -106 rlineto
          50 -80 -97 26 -110 hhcurveto
          -312 -217 -218 -356 hvcurveto
          -50 vlineto
          -176 54 -142 91 -99 vhcurveto
          -136 -196 rlineto
          164 hlineto
          78 112 rlineto
          -47 79 95 -25 106 hhcurveto
          314 214 217 356 hvcurveto
          50 vlineto
          hintmask 10111000
          173 -51 140 -88 99 vhcurveto
          -672 -462 rmoveto
          52 vlineto
          hintmask 11111000
          239 105 132 176 65 55 -18 -34 44 vhcurveto
          -406 -584 rlineto
          hintmask 10111000
          -25 57 -14 71 85 vvcurveto
          563 hmoveto
          -238 -103 -135 -177 -62 -53 16 32 -43 vhcurveto
          404 580 rlineto
          22 -55 12 -68 -80 vvcurveto
          endchar
        </CharString>
        <CharString name="Otilde">
          -59 callsubr
          91 -56 callsubr
          100 260 -20 -44 callgsubr
          -23 260 hintmask 00000000
          hintmask 11101010
          1076 1825 -95 callsubr
          237 -1134 -107 callgsubr
        </CharString>
        <CharString name="Otilde.smcp">
          -64 callgsubr
          106 -56 callsubr
          78 248 -87 -44 callgsubr
          -86 248 hintmask 00000000
          hintmask 11101010
          975 1545 -95 callsubr
          162 -988 -107 callsubr
        </CharString>
        <CharString name="P">
          221 21 -21 538 208 501 -23 callsubr
          572 260 vstem
          705 -26 callgsubr
          -559 -40 callgsubr
          538 300 hlineto
          338 194 170 283 269 -194 196 -338 hvcurveto
          -710 vmoveto
          -300 501 300 hlineto
          193 79 -124 -134 -143 -79 -100 -193 hvcurveto
          endchar
        </CharString>
        <CharString name="P.smcp">
          45 21 -21 406 201 357 -41 callsubr
          456 -79 callsubr
          603 -12 callgsubr
          -487 26 callgsubr
          406 238 hlineto
          294 173 146 225 225 -173 163 -294 hvcurveto
          -558 vmoveto
          -238 357 238 hlineto
          152 66 -89 -100 -98 -66 -70 -152 hvcurveto
          endchar
        </CharString>
        <CharString name="Q">
          -59 callsubr
          hstem
          95 -32 callsubr
          1308 691 rmoveto
          73 vlineto
          442 -245 270 -363 -356 -249 -270 -442 vhcurveto
          -73 vlineto
          -442 251 -269 356 45 43 4 8 41 vhcurveto
          309 -245 168 150 -249 196 rlineto
          156 118 93 207 273 vvcurveto
          -953 hmoveto
          75 vlineto
          323 132 173 213 221 127 -173 -323 vhcurveto
          -75 vlineto
          -323 -125 -175 -221 -213 -134 175 323 vhcurveto
          endchar
        </CharString>
        <CharString name="Q.smcp">
          -64 callgsubr
          hstem
          75 249 563 248 vstem
          1135 557 rmoveto
          50 vlineto
          356 -216 218 -315 -312 -217 -218 -356 vhcurveto
          -50 vlineto
          -356 219 -217 312 35 33 3 5 32 vhcurveto
          266 -202 159 139 -205 153 rlineto
          131 96 78 164 215 vvcurveto
          -811 hmoveto
          52 vlineto
          239 105 132 175 178 105 -132 -239 vhcurveto
          -52 vlineto
          -238 -103 -135 -178 -176 -106 135 238 vhcurveto
          endchar
        </CharString>
        <CharString name="Q.ss06">
          415 -12 callsubr
          711 rmoveto
          33 vlineto
          430 -272 303 -374 -368 -277 -303 -430 vhcurveto
          -33 vlineto
          -430 279 -302 368 46 44 5 8 43 vhcurveto
          297 -245 168 150 -238 194 rlineto
          175 125 109 222 273 vvcurveto
          -257 hmoveto
          -310 -154 -211 -233 -226 -163 211 310 vhcurveto
          35 vlineto
          309 161 210 226 232 157 -210 -309 vhcurveto
          endchar
        </CharString>
        <CharString name="R">
          193 21 -21 558 208 481 -23 callsubr
          525 259 vstem
          924 619 rmoveto
          165 70 100 131 197 vvcurveto
          286 -193 153 -334 vhcurveto
          -516 -40 callgsubr
          558 277 hlineto
          289 -558 rlineto
          278 13 hlineto
          -844 1234 rmoveto
          257 hlineto
          187 81 -95 -148 -139 -89 -99 -178 hvcurveto
          -258 hlineto
          endchar
        </CharString>
        <CharString name="R.alt">
          257 0 27 567 208 445 209 hstemhm
          152 259 527 259 -246 259 hintmask 11111000
          1197 244 rmoveto
          115 vlineto
          165 -58 128 -177 54 vhcurveto
          hintmask 11110100
          156 64 92 103 160 vvcurveto
          273 -176 150 -326 vhcurveto
          -556 -40 callgsubr
          594 296 hlineto
          hintmask 11111000
          150 81 -90 -147 hvcurveto
          -111 vlineto
          -46 2 -148 61 -52 vhcurveto
          266 27 hlineto
          -56 49 -14 102 66 vvcurveto
          hintmask 11110100
          -514 558 rmoveto
          -272 445 287 hlineto
          179 74 -91 -135 -143 -80 -76 -188 hvcurveto
          endchar
        </CharString>
        <CharString name="R.smcp">
          30 21 -21 422 200 342 -41 callsubr
          422 -79 callsubr
          812 485 rmoveto
          139 58 85 98 172 vvcurveto
          229 -173 123 -287 vhcurveto
          -460 26 callgsubr
          422 219 hlineto
          233 -422 rlineto
          267 11 hlineto
          -719 953 rmoveto
          211 hlineto
          144 67 -67 -105 -104 -71 -66 -140 hvcurveto
          -211 hlineto
          endchar
        </CharString>
        <CharString name="S">
          150 -20 205 1085 206 hstemhm
          74 259 -214 259 528 260 hintmask 11011000
          599 626 rmoveto
          251 -76 56 -58 -115 vvcurveto
          -114 -87 -78 -173 vhcurveto
          hintmask 11101000
          -178 -135 75 183 hvcurveto
          -259 hlineto
          -311 291 -152 281 316 204 152 247 232 -155 134 -326 96 vhcurveto
          hintmask 11011000
          -206 60 -101 65 107 vvcurveto
          112 82 85 175 185 86 -100 -139 vhcurveto
          258 hlineto
          245 -198 200 -328 -309 -210 -167 -237 -239 204 -122 276 -85 vhcurveto
          endchar
        </CharString>
        <CharString name="S.smcp">
          -10 -16 188 820 189 41 callgsubr
          418 249 -243 242 hintmask 11010100
          529 483 rmoveto
          16 callgsubr
          vhcurveto
          hintmask 11100100
          -155 -98 55 135 hvcurveto
          -250 hlineto
          -261 251 -117 244 274 178 123 206 37 callgsubr
          hintmask 11011000
          15 callsubr
          145 72 -76 -95 3 callgsubr
          hlineto
          212 -182 148 -284 -261 -181 -138 -196 vhcurveto
          hintmask 11010100
          36 callgsubr
          endchar
        </CharString>
        <CharString name="T">
          157 21 -21 1247 34 callsubr
          493 28 callgsubr
          1204 -26 callgsubr
          -1159 -209 448 -1247 258 1247 453 hlineto
          endchar
        </CharString>
        <CharString name="T.smcp">
          -3 21 -21 964 201 hstem
          416 -79 callsubr
          1050 -12 callgsubr
          -1014 -201 380 -964 249 964 385 hlineto
          endchar
        </CharString>
        <CharString name="Thorn">
          139 21 -21 298 200 480 200 278 -20 hstem
          147 249 510 -79 callsubr
          638 1178 rmoveto
          -242 278 -249 -48 callgsubr
          249 298 242 hlineto
          334 183 186 254 255 -183 185 -334 hvcurveto
          -680 vmoveto
          -242 480 242 hlineto
          191 77 -117 -125 -121 -77 -117 -191 hvcurveto
          endchar
        </CharString>
        <CharString name="Thorn.smcp">
          -55 21 -21 226 201 357 -41 callsubr
          368 -79 callsubr
          515 985 rmoveto
          -150 180 -249 26 callgsubr
          226 150 hlineto
          294 173 149 230 220 -173 160 -294 hvcurveto
          -558 vmoveto
          -150 357 150 hlineto
          152 66 -86 -95 -102 -66 -74 -152 hvcurveto
          endchar
        </CharString>
        <CharString name="U">
          -35 callgsubr
          -30 callgsubr
          1216 1456 -97 callgsubr
        </CharString>
        <CharString name="U.smcp">
          68 -16 2 callsubr
          102 248 457 27 callgsubr
          1057 1165 -96 callgsubr
        </CharString>
        <CharString name="Uacute">
          -35 callgsubr
          107 303 -30 callgsubr
          741 1846 rmoveto
          -88 callsubr
          277 303 rlineto
          193 -390 -97 callgsubr
        </CharString>
        <CharString name="Uacute.smcp">
          -7 callgsubr
          649 1566 rmoveto
          -88 callsubr
          277 303 rlineto
          126 -401 -96 callgsubr
        </CharString>
        <CharString name="Ucircumflex">
          -35 callgsubr
          122 289 -30 callgsubr
          1018 1569 rmoveto
          -101 callsubr
          150 155 151 -155 -22 callsubr
          hlineto
          198 -102 -97 callgsubr
        </CharString>
        <CharString name="Ucircumflex.smcp">
          68 -21 callgsubr
          1094 27 callsubr
          102 248 457 27 callgsubr
          926 1289 rmoveto
          -101 callsubr
          150 155 151 -155 -22 callsubr
          hlineto
          131 -113 -96 callgsubr
        </CharString>
        <CharString name="Udieresis">
          -35 callgsubr
          122 4 callgsubr
          125 258 389 256 -71 259 hintmask 11110100
          439 1796 -92 callgsubr
          hintmask 11111000
          -94 callgsubr
          hintmask 11110100
          316 -339 -97 callgsubr
        </CharString>
        <CharString name="Udieresis.smcp">
          68 -21 callgsubr
          1094 4 callgsubr
          102 248 330 256 -129 250 hintmask 11101000
          347 -21 callsubr
          hintmask 11110000
          -94 callgsubr
          hintmask 11101000
          249 -350 -96 callgsubr
        </CharString>
        <CharString name="Ugrave">
          -35 callgsubr
          107 303 -30 callgsubr
          796 1543 -98 callsubr
          626 -87 -97 callgsubr
        </CharString>
        <CharString name="Ugrave.smcp">
          -7 callgsubr
          704 1263 -98 callsubr
          559 -98 -96 callgsubr
        </CharString>
        <CharString name="V">
          237 -75 callgsubr
          hstem
          17 1295 vstem
          1027 -26 callgsubr
          -364 -1134 -362 1134 rlineto
          -284 hlineto
          520 -48 callgsubr
          rlineto
          253 hlineto
          522 -68 callsubr
          rlineto
          endchar
        </CharString>
        <CharString name="V.smcp">
          60 11 callgsubr
          8 1133 vstem
          878 -12 callgsubr
          -286 -854 -17 -73 -19 76 -284 851 rlineto
          -264 hlineto
          439 -1165 rlineto
          255 hlineto
          439 -39 callsubr
          rlineto
          endchar
        </CharString>
        <CharString name="W">
          711 -75 callgsubr
          hstem
          47 1718 vstem
          1507 -26 callgsubr
          -220 -1089 -270 1089 rlineto
          -217 hlineto
          -274 -1088 -222 1088 rlineto
          -257 hlineto
          334 -48 callgsubr
          rlineto
          251 hlineto
          276 1053 272 -1053 rlineto
          251 hlineto
          334 -68 callsubr
          rlineto
          endchar
        </CharString>
        <CharString name="W.smcp">
          452 11 callgsubr
          39 1469 vstem
          1267 -12 callgsubr
          -172 -858 -210 858 rlineto
          -220 hlineto
          -210 -860 -174 860 rlineto
          -242 hlineto
          281 -1165 rlineto
          242 hlineto
          212 822 212 -822 rlineto
          242 hlineto
          280 -39 callsubr
          rlineto
          endchar
        </CharString>
        <CharString name="X">
          207 -75 callgsubr
          hstem
          39 1222 vstem
          650 934 rmoveto
          -302 522 rlineto
          -299 hlineto
          439 -722 -449 -734 rlineto
          302 hlineto
          309 531 309 -531 rlineto
          302 hlineto
          -449 734 438 722 rlineto
          -299 hlineto
          endchar
        </CharString>
        <CharString name="X.smcp">
          30 11 callgsubr
          19 1082 vstem
          551 766 rmoveto
          -235 399 rlineto
          -288 hlineto
          374 -578 -383 -587 rlineto
          290 hlineto
          246 406 250 -406 rlineto
          296 hlineto
          -395 587 373 578 rlineto
          -290 hlineto
          endchar
        </CharString>
        <CharString name="Y">
          161 -75 callgsubr
          hstem
          494 261 vstem
          624 771 -40 callsubr
        </CharString>
        <CharString name="Y.smcp">
          -3 11 callgsubr
          415 -79 callsubr
          1082 1165 -37 callsubr
        </CharString>
        <CharString name="Yacute">
          161 -75 callgsubr
          107 -33 callsubr
          494 261 vstem
          701 1846 rmoveto
          -88 callsubr
          277 303 rlineto
          -359 -1075 -40 callsubr
        </CharString>
        <CharString name="Yacute.smcp">
          -3 21 -21 1263 -33 callsubr
          415 -79 callsubr
          892 1566 rmoveto
          -282 hlineto
          -88 callsubr
          467 -98 -37 callsubr
        </CharString>
        <CharString name="Z">
          145 40 callsubr
          79 1088 vstem
          395 208 rmoveto
          749 1087 rlineto
          161 -1060 -209 745 vlineto
          -750 -1081 rlineto
          -166 1088 208 vlineto
          endchar
        </CharString>
        <CharString name="Z.smcp">
          -23 -19 callgsubr
          764 201 hstem
          64 949 vstem
          385 200 rmoveto
          613 826 rlineto
          139 -933 -201 615 vlineto
          -616 -821 rlineto
          -143 949 200 vlineto
          endchar
        </CharString>
        <CharString name="a">
          -82 callsubr
          -15 callsubr
          hintmask 01111100
          980 252 -94 callsubr
          hintmask 10111100
          -49 callgsubr
          hintmask 01111100
          6 -39 9 -36 12 -26 rrcurveto
          254 17 hlineto
          -27 57 -14 78 100 vvcurveto
          hintmask 10111100
          -95 callgsubr
        </CharString>
        <CharString name="aacute">
          -82 callsubr
          20 callgsubr
          -15 callsubr
          hintmask 01111110
          920 15 callgsubr
          rmoveto
          -282 hlineto
          -88 callsubr
          337 -981 -101 callgsubr
        </CharString>
        <CharString name="acircumflex">
          -82 callsubr
          146 289 -15 callsubr
          hintmask 01111110
          565 1403 rmoveto
          151 -155 -22 callsubr
          11 hlineto
          -101 callsubr
          565 -996 -101 callgsubr
        </CharString>
        <CharString name="acute">
          -421 9 callgsubr
          111 477 vstem
          307 15 callgsubr
          -11 callgsubr
          -303 rlineto
          201 hlineto
          276 303 rlineto
          endchar
        </CharString>
        <CharString name="acutecomb">
          -1090 9 callgsubr
          -675 477 vstem
          -480 15 callgsubr
          rmoveto
          -88 callsubr
          277 303 rlineto
          endchar
        </CharString>
        <CharString name="adieresis">
          -82 callsubr
          146 4 callgsubr
          88 249 332 256 -194 249 hintmask 01111001
          336 28 callsubr
          -88 callgsubr
          hintmask 01111010
          -89 callgsubr
          hintmask 10111101
          183 -994 -102 callsubr
          -80 callsubr
          hvcurveto
          hintmask 01111001
          6 -39 9 -36 12 -26 rrcurveto
          254 17 hlineto
          hintmask 10111101
          -27 57 -14 78 100 vvcurveto
          -95 callgsubr
        </CharString>
        <CharString name="ae">
          639 -21 189 -189 200 290 174 -169 170 258 2 callgsubr
          71 249 413 245 446 246 hintmask 10101111
          1670 612 rmoveto
          301 -163 189 -288 vhcurveto
          -135 1 -113 -47 -82 -83 rrcurveto
          86 -73 -117 43 -144 hhcurveto
          -271 -181 -140 -192 hvcurveto
          248 -19 rlineto
          82 78 69 125 115 64 -72 -118 vhcurveto
          hintmask 10011111
          -68 -187 vlineto
          -311 -164 -120 -211 -202 135 -132 245 205 135 78 82 71 hvcurveto
          -100 87 132 -60 173 hhcurveto
          200 137 77 44 55 hvcurveto
          hintmask 01101111
          -72 169 rlineto
          -40 -72 -83 -50 -149 hhcurveto
          -192 -88 125 165 -12 hvcurveto
          692 hlineto
          -246 174 rmoveto
          -442 hlineto
          150 19 77 109 141 hhcurveto
          147 58 -100 -130 hvcurveto
          hintmask 10011111
          -1104 -363 rmoveto
          87 79 78 149 vhcurveto
          185 -207 hlineto
          -53 -56 -96 -46 -82 hhcurveto
          -123 -56 60 81 hvcurveto
          endchar
        </CharString>
        <CharString name="agrave">
          -82 callsubr
          20 callgsubr
          -15 callsubr
          hintmask 01111110
          693 14 callsubr
          -98 callsubr
          493 -981 -101 callgsubr
        </CharString>
        <CharString name="alpha">
          67 -21 200 723 2 callsubr
          85 249 440 -79 callsubr
          1122 194 rmoveto
          -2 -6 -9 -3 -11 hhcurveto
          -42 -31 29 109 hvcurveto
          755 -214 vlineto
          -20 -131 rlineto
          96 -64 -91 55 -126 hhcurveto
          -273 -150 -238 -336 21 callgsubr
          -308 151 -220 270 134 95 60 103 65 vhcurveto
          -113 38 76 -50 105 hhcurveto
          45 39 4 26 43 hvcurveto
          -577 170 rmoveto
          -8 callsubr
          98 64 -53 -82 41 vhcurveto
          -458 vlineto
          -79 -41 -62 -51 -102 hhcurveto
          endchar
        </CharString>
        <CharString name="alpha.alt">
          120 -21 200 -158 -21 902 2 callgsubr
          85 -14 callgsubr
          hintmask 01110000
          1119 hmoveto
          -115 540 108 542 rlineto
          -226 hlineto
          -27 -191 rlineto
          132 -69 -110 79 -164 hhcurveto
          -279 -152 -238 -336 21 callgsubr
          hintmask 10110000
          -308 154 -220 275 169 111 80 133 69 vhcurveto
          hintmask 01110000
          30 -192 rlineto
          -85 509 rmoveto
          hintmask 10110000
          -170 -23 -61 -160 -155 hhcurveto
          -8 callsubr
          153 66 -166 -178 18 vhcurveto
          endchar
        </CharString>
        <CharString name="ampersand">
          224 -20 200 -159 -21 1276 2 callgsubr
          84 250 -129 233 301 215 43 216 hintmask 00000000
          hintmask 01101110
          1300 hmoveto
          -214 253 rlineto
          89 120 38 152 172 vvcurveto
          -216 hlineto
          -101 -23 -90 -38 -75 vhcurveto
          -277 328 99 71 rlineto
          117 85 79 96 139 vvcurveto
          176 -141 150 -222 -233 -153 -140 -231 -112 59 -98 91 -116 vhcurveto
          hintmask 10110110
          -160 -113 -111 -101 -172 vvcurveto
          -241 182 -172 294 135 130 37 79 106 vhcurveto
          hintmask 01101110
          81 -96 rlineto
          -422 1276 rmoveto
          95 54 -68 -68 -78 -31 -46 -83 -55 hvcurveto
          -87 -58 rlineto
          -60 76 -40 66 65 vvcurveto
          90 51 76 101 vhcurveto
          hintmask 10110110
          -22 -1096 rmoveto
          -151 -83 97 126 47 12 76 104 81 hvcurveto
          29 21 314 -370 rlineto
          -50 -68 -78 -28 -79 hhcurveto
          endchar
        </CharString>
        <CharString name="ampersand.smcp">
          200 -18 201 -162 -21 987 194 hstemhm
          92 248 -157 224 234 226 56 217 hintmask 00000000
          hintmask 01101110
          1212 hmoveto
          -200 206 rlineto
          79 98 49 125 155 vvcurveto
          -217 hlineto
          -87 -20 -77 -37 -63 vhcurveto
          -229 236 70 47 rlineto
          92 63 68 88 105 vvcurveto
          163 -134 122 -210 -210 -130 -123 -153 -119 63 -74 92 -95 vhcurveto
          -48 -33 rlineto
          hintmask 10110110
          -123 -83 -75 -78 -135 vvcurveto
          -174 161 -132 257 137 121 33 59 98 vhcurveto
          hintmask 01101110
          72 -74 rlineto
          -531 883 rmoveto
          52 39 52 75 76 44 -45 -55 -42 -20 -38 -67 -45 vhcurveto
          -49 -33 rlineto
          -55 56 -43 45 53 vvcurveto
          hintmask 10110110
          115 -700 rmoveto
          -119 -63 53 81 36 13 46 63 43 hvcurveto
          56 38 248 -256 rlineto
          -26 -56 -66 -15 -76 hhcurveto
          endchar
        </CharString>
        <CharString name="aring">
          -82 callsubr
          115 94 223 95 hstemhm
          88 249 7 9 callsubr
          -56 249 hintmask 0111110101000000
          565 1217 rmoveto
          hintmask 0111110110000000
          127 95 89 115 114 -95 94 -127 -127 -94 -94 -114 hvcurveto
          hintmask 0111110101000000
          8 callsubr
          vhcurveto
          317 vmoveto
          hintmask 0111110110000000
          67 45 -52 -61 -59 -45 -51 -67 -66 -45 52 58 hvcurveto
          hintmask 0111110101000000
          61 45 52 66 vhcurveto
          415 -1282 rmoveto
          477 vlineto
          249 -177 124 -244 -274 -174 -161 -172 3 callgsubr
          hlineto
          82 72 63 113 125 61 -72 -111 vhcurveto
          -70 -150 vlineto
          hintmask 1011111001000000
          -314 -179 -126 -231 -80 callsubr
          hvcurveto
          hintmask 0111110101000000
          6 -39 9 -36 12 -26 rrcurveto
          254 17 hlineto
          -27 57 -14 78 100 vvcurveto
          hintmask 1011111001000000
          -95 callgsubr
        </CharString>
        <CharString name="asciicircum">
          -212 10 callgsubr
          52 774 vstem
          826 729 rmoveto
          -298 727 rlineto
          -177 hlineto
          -299 -727 rlineto
          210 hlineto
          178 461 177 -461 rlineto
          endchar
        </CharString>
        <CharString name="asciitilde">
          267 386 208 16 207 hstemhm
          116 196 738 191 hintmask 00000000
          hintmask 11110000
          1241 788 rmoveto
          -191 -1 rlineto
          -111 -60 -82 -89 -57 -47 30 59 -62 vhcurveto
          hintmask 01110000
          87 -94 -84 47 -111 hhcurveto
          -193 -137 -157 -236 hvcurveto
          196 hlineto
          110 54 76 88 59 49 -32 -57 60 vhcurveto
          hintmask 11110000
          -91 99 77 -44 111 hhcurveto
          193 139 169 233 hvcurveto
          endchar
        </CharString>
        <CharString name="asterisk">
          -181 1457 -20 hstem
          378.5 165.5 vstem
          333 971 rmoveto
          -207 -272 147 -103 178 280 181 -289 147 107 -202 266 312 88 -55 173 -298 -116 16 352 rlineto
          -181 hlineto
          15 -345 -303 118 -55 -171 rlineto
          endchar
        </CharString>
        <CharString name="at">
          743 -453 155 277 145 -143 167 685 157 282 152 hstemhm
          98 177 253.76 199.06 852.18001 160 hintmask 11011111
          965 1424 rmoveto
          -513 -330 -408 -546 -24 hvcurveto
          -584 -23 297 -339 519 hhcurveto
          125 155 29 60 94 hvcurveto
          -39 138 rlineto
          -43 -83 -131 -29 -117 hhcurveto
          -414 -228 277 491 22 hvcurveto
          468 21 252 334 413 hhcurveto
          445 196 -290 -465 -22 hvcurveto
          -220 -8 -86 -173 -142 hhcurveto
          -61 -67 33 160 15 hvcurveto
          52 565 rlineto
          58 -79 -71 50 -151 hhcurveto
          -220 -196 -219 -347 -34 hvcurveto
          hintmask 10111111
          -267 -25 108 -176 196 hhcurveto
          100 93 51 100 68 hvcurveto
          hintmask 11011111
          -97 39 85 -56 118 hhcurveto
          300 116 281 261 10 hvcurveto
          546 23 -283 357 -515 hhcurveto
          hintmask 10111111
          -93 -1276 rmoveto
          -106 -52 96 180 17 hvcurveto
          267 25 96 142 148 hhcurveto
          36 31 -7 -11 28 hvcurveto
          -44 -489 rlineto
          -133 -47 -76 -45 -56 hhcurveto
          endchar
        </CharString>
        <CharString name="atilde">
          -82 callsubr
          155 -56 callsubr
          88 249 -140 151 383 249 -199 152 hintmask 0000000000000000
          hintmask 0111010110000000
          438 1346 rmoveto
          hintmask 0111100001000000
          -78 callsubr
          hintmask 0111010110000000
          -100 callgsubr
          hintmask 1011101010000000
          542 -1094 -102 callsubr
          -80 callsubr
          hvcurveto
          hintmask 0111100010000000
          6 -39 9 -36 12 -26 rrcurveto
          254 17 hlineto
          hintmask 1011101010000000
          -27 57 -14 78 100 vvcurveto
          -95 callgsubr
        </CharString>
        <CharString name="b">
          63 0 callsubr
          455 -31 callgsubr
          225 vlineto
          12 117 rlineto
          hintmask 10111000
          -87 68 96 -50 131 hhcurveto
          275 146 230 320 -2 callgsubr
          324 -144 227 -279 vhcurveto
          174 -572 rmoveto
          -195 -58 -152 -177 -112 -69 56 82 -39 vhcurveto
          443 vlineto
          81 39 69 54 110 hhcurveto
          183 54 -160 -188 hvcurveto
          endchar
        </CharString>
        <CharString name="b.ss06">
          72 0 callsubr
          475 -31 callgsubr
          215 vlineto
          18 122 rlineto
          hintmask 10111000
          -90 69 97 -52 133 hhcurveto
          275 166 235 -6 callsubr
          -164 222 -279 vhcurveto
          194 -572 rmoveto
          -191 -78 -156 -177 -110 -69 54 78 -41 vhcurveto
          455 vlineto
          79 40 70 50 108 hhcurveto
          177 80 -151 -197 hvcurveto
          endchar
        </CharString>
        <CharString name="backslash">
          -233 10 callgsubr
          18 855 vstem
          18 -26 callgsubr
          607 -1581 rlineto
          248 hlineto
          -608 1581 rlineto
          endchar
        </CharString>
        <CharString name="bar">
          -575 10 callgsubr
          174 169 vstem
          343 -270 rmoveto
          1726 -169 -1726 vlineto
          endchar
        </CharString>
        <CharString name="braceleft">
          -404 528 182 hstem
          247 232 vstem
          479 106 rmoveto
          203 vlineto
          132 -52 115 -120 63 vhcurveto
          120 63 52 115 132 vvcurveto
          203 vlineto
          151 41 126 136 46 vhcurveto
          -49 142 rlineto
          -275 -77 -85 -178 -210 vvcurveto
          -203 vlineto
          -134 -57 -85 -135 vhcurveto
          -182 vlineto
          135 57 -86 -133 hvcurveto
          -203 vlineto
          -210 85 -179 275 -77 vhcurveto
          49 143 rlineto
          -136 46 -41 126 151 vvcurveto
          endchar
        </CharString>
        <CharString name="braceright">
          -404 528 182 hstem
          205 233 vstem
          438 929 rmoveto
          203 vlineto
          210 -85 178 -275 77 vhcurveto
          -49 -142 rlineto
          136 -46 40 -126 -151 vvcurveto
          -203 vlineto
          -136 56 -114 126 -60 vhcurveto
          -126 -61 -56 -113 -136 vvcurveto
          -203 vlineto
          -151 -40 -126 -136 -46 vhcurveto
          49 -143 rlineto
          275 77 85 179 210 vvcurveto
          203 vlineto
          133 56 86 135 vhcurveto
          182 vlineto
          -135 -56 85 134 hvcurveto
          endchar
        </CharString>
        <CharString name="bracketleft">
          -527 -327 194 1619 195 -10 callsubr
          542 1486 rmoveto
          195 -411 -2008 411 194 -162 1619 vlineto
          endchar
        </CharString>
        <CharString name="bracketright">
          -527 -327 194 1619 195 hstem
          176 -79 callsubr
          13 1681 rmoveto
          -195 163 -1619 -163 -194 412 2008 vlineto
          endchar
        </CharString>
        <CharString name="brokenbar">
          -580 10 callgsubr
          136 233 vstem
          369 698 rmoveto
          758 -233 -758 vlineto
          -968 vmoveto
          233 795 -233 hlineto
          endchar
        </CharString>
        <CharString name="bullet">
          -371 516 472 hstem
          136 449 vstem
          136 771 rmoveto
          -40 vlineto
          -126 87 -89 138 139 85 89 126 vhcurveto
          40 vlineto
          126 -85 91 -141 -136 -87 -91 -126 vhcurveto
          endchar
        </CharString>
        <CharString name="c">
          -18 22 callgsubr
          vstem
          779 360 rmoveto
          17 callgsubr
          -70 callgsubr
          242 -6 -175 167 -262 hhcurveto
          -332 -161 -246 -298 hvcurveto
          -34 vlineto
          -298 160 -246 334 241 195 169 211 6 vhcurveto
          endchar
        </CharString>
        <CharString name="c.ss06">
          -4 -30 callsubr
          79 -79 callsubr
          793 360 rmoveto
          -105 -8 -91 -75 -116 hhcurveto
          -196 -54 170 174 hvcurveto
          34 vlineto
          171 56 173 193 130 78 -95 -114 8 vhcurveto
          234 hlineto
          242 -9 -176 167 -262 hhcurveto
          -332 -169 -246 -298 hvcurveto
          -34 vlineto
          -298 168 -246 334 241 196 169 211 9 vhcurveto
          endchar
        </CharString>
        <CharString name="ccedilla">
          -18 -456 142 326 -21 911 200 34 callgsubr
          249 203 vstem
          569 180 rmoveto
          -70 callgsubr
          242 -6 -175 167 -262 hhcurveto
          -332 -161 -246 -298 hvcurveto
          -34 vlineto
          -261 123 -222 255 -50 vhcurveto
          -30 -133 -84 callsubr
          8 41 210 27 162 157 5 192 rlinecurve
          -235 hlineto
          17 callgsubr
          endchar
        </CharString>
        <CharString name="cedilla">
          -559 -450 142 257 55 hstem
          258 203 vstem
          322 4 rmoveto
          -182 hlineto
          -32 -140 -84 callsubr
          endchar
        </CharString>
        <CharString name="cent">
          63 10 -21 hstem
          101 249 139 200 vstem
          592 180 rmoveto
          -70 callgsubr
          -5 211 -134 155 -209 35 rrcurveto
          224 -200 -225 vlineto
          -261 -47 -127 -223 -265 vvcurveto
          -34 vlineto
          -265 126 -223 262 -47 vhcurveto
          -234 200 234 vlineto
          196 37 147 151 5 183 rrcurveto
          -235 hlineto
          17 callgsubr
          endchar
        </CharString>
        <CharString name="circumflex">
          -89 28 callsubr
          27 callsubr
          146 696 vstem
          842 1259 rmoveto
          -101 callsubr
          150 155 151 -155 18 callsubr
        </CharString>
        <CharString name="colon">
          -542 9 -21 845 274 hstem
          129 289 vstem
          274 1107 -45 callsubr
          -845 vmoveto
          -85 callsubr
          endchar
        </CharString>
        <CharString name="comma">
          -633 -333 570 hstem
          132 221 vstem
          353 61 -43 callsubr
        </CharString>
        <CharString name="copyright">
          515 -21 125 178 135 623 135 176 125 hstem
          87 122 225 155 373 156 266 123 vstem
          -81 callsubr
          321 492 rmoveto
          -156 hlineto
          -130 -61 -49 -118 -128 -66 103 149 vhcurveto
          120 vlineto
          147 66 104 128 118 62 -50 -128 vhcurveto
          156 hlineto
          209 -130 104 -206 -215 -134 -158 -229 vhcurveto
          -119 vlineto
          -230 134 -157 215 206 129 104 210 vhcurveto
          endchar
        </CharString>
        <CharString name="crossbar">
          -133 647 173 hstem
          144 673 vstem
          817 647 rmoveto
          173 -673 -173 vlineto
          endchar
        </CharString>
        <CharString name="currency">
          345 -20 186 882 186 hstem
          127 185 819 186 vstem
          1317 608 rmoveto
          137 -39 124 -67 101 vhcurveto
          147 150 -142 145 -145 -147 rlineto
          73 -98 -120 43 -131 hhcurveto
          -129 -120 -42 -73 -98 hvcurveto
          -142 145 -141 -144 144 -147 rlineto
          -69 -102 -40 -125 -138 vvcurveto
          -132 37 -121 64 -99 vhcurveto
          -136 -138 141 -144 129 132 rlineto
          -80 100 125 -46 135 hhcurveto
          136 126 47 80 100 hvcurveto
          132 -134 142 145 -139 141 rlineto
          62 99 36 120 130 vvcurveto
          -595 -442 rmoveto
          -227 -183 196 246 246 183 194 227 227 182 -194 -246 -246 -182 -196 -227 hvcurveto
          endchar
        </CharString>
        <CharString name="d">
          67 -29 callgsubr
          899 203 hstemhm
          3 callsubr
          453 249 hintmask 10111000
          780 15 callgsubr
          rmoveto
          -552 vlineto
          75 -67 -91 43 -117 hhcurveto
          -265 -162 -223 -41 callgsubr
          164 -234 261 125 95 48 84 69 vhcurveto
          hintmask 01111000
          12 -112 rlineto
          225 4 callsubr
          -67 35 callgsubr
          69 157 172 103 68 -49 -78 41 vhcurveto
          -458 vlineto
          -79 -40 -67 -51 -107 hhcurveto
          endchar
        </CharString>
        <CharString name="d.ss06">
          87 -29 callgsubr
          899 203 hstemhm
          3 callsubr
          473 249 hintmask 10111000
          800 15 callgsubr
          rmoveto
          -552 vlineto
          76 -67 -91 42 -117 hhcurveto
          -265 -182 -223 -41 callgsubr
          184 -234 261 128 96 51 87 69 vhcurveto
          hintmask 01111000
          18 -118 rlineto
          215 4 callsubr
          -87 155 190 -2 callgsubr
          198 89 151 172 101 69 -47 -74 42 vhcurveto
          -469 vlineto
          -76 -42 -68 -49 -104 hhcurveto
          endchar
        </CharString>
        <CharString name="degree">
          -309 941 142 252 142 hstem
          127 140 247 140 vstem
          393 1477 rmoveto
          -145 -121 -123 -147 -148 121 -118 145 143 118 118 148 147 -118 123 -143 hvcurveto
          -394 vmoveto
          -68 -58 53 71 73 58 55 68 68 53 -55 -73 -71 -53 -53 -68 hvcurveto
          endchar
        </CharString>
        <CharString name="dieresis">
          -181 28 callsubr
          4 callgsubr
          555 256 hintmask 00000000
          hintmask 11000000
          222 1486 -92 callgsubr
          -94 callgsubr
          endchar
        </CharString>
        <CharString name="divide">
          79 581 215 164 270 hstemhm
          433 289 hintmask 00000000
          hintmask 11100000
          577 1230 rmoveto
          -91 -53 -58 -78 -76 53 -58 91 91 54 58 76 78 -54 58 -91 hvcurveto
          504 -649 rmoveto
          215 -1014 -215 vlineto
          510 -166 rmoveto
          -91 -53 -58 -78 -77 53 -57 91 91 54 57 77 78 -54 58 -91 hvcurveto
          endchar
        </CharString>
        <CharString name="dollar">
          76 4 -21 1488 -20 22 -20 hstemhm
          100 249 -193 248 109 159 -139 160 20 callsubr
          -243 248 hintmask 1010101010000000
          1064 383 rmoveto
          249 -160 109 -259 94 vhcurveto
          -183 67 -58 61 111 vvcurveto
          117 62 81 138 vhcurveto
          hintmask 1100101100000000
          129 77 -100 -167 33 callsubr
          269 -139 164 -227 33 vhcurveto
          220 -160 vlineto
          hintmask 1010101010000000
          -218 vlineto
          -229 -26 -148 -149 -225 vvcurveto
          -250 165 -112 258 -89 vhcurveto
          173 -61 64 -68 -112 vvcurveto
          -119 -80 -78 -148 vhcurveto
          hintmask 1011010010000000
          -116 -123 58 203 hvcurveto
          -249 hlineto
          -312 200 -127 213 -23 vhcurveto
          -195 159 195 vlineto
          hintmask 1010101010000000
          239 26 153 140 234 vvcurveto
          endchar
        </CharString>
        <CharString name="dollar.smcp">
          -10 9 -21 41 callgsubr
          137 160 121 249 -243 242 hintmask 10110100
          590 689 rmoveto
          15 callsubr
          vhcurveto
          hintmask 10111000
          145 72 -76 -95 33 callsubr
          187 -142 137 -228 30 vhcurveto
          220 -160 -217 vlineto
          -226 -21 -152 -130 -180 vvcurveto
          36 callgsubr
          hintmask 11010100
          16 callgsubr
          -155 -98 55 135 vhcurveto
          -250 hlineto
          -234 201 -118 217 -22 vhcurveto
          -225 160 225 vlineto
          226 23 143 118 184 vvcurveto
          hintmask 10110100
          37 callgsubr
          endchar
        </CharString>
        <CharString name="dotlessi">
          -548 11 callgsubr
          143 -79 callsubr
          392 hmoveto
          -43 callgsubr
        </CharString>
        <CharString name="e">
          -66 callgsubr
          hstemhm
          792 246 hintmask 00000000
          hintmask 11110000
          1038 568 -106 callgsubr
        </CharString>
        <CharString name="e.ss07">
          -66 callgsubr
          hstem
          792 246 vstem
          1038 592 rmoveto
          300 -150 210 -314 -280 -212 -214 -332 vhcurveto
          -41 vlineto
          -307 211 -228 337 177 121 57 50 67 vhcurveto
          -58 171 rlineto
          -42 -66 -104 -36 -110 hhcurveto
          -197 -108 119 164 -18 hvcurveto
          704 hlineto
          -246 180 rmoveto
          -456 hlineto
          161 21 83 98 134 hhcurveto
          160 58 -107 -127 hvcurveto
          endchar
        </CharString>
        <CharString name="eacute">
          -66 callgsubr
          20 callgsubr
          hstem
          82 956 vstem
          909 15 callgsubr
          rmoveto
          -282 hlineto
          -88 callsubr
          406 -665 -106 callgsubr
        </CharString>
        <CharString name="ecircumflex">
          -66 callgsubr
          146 27 callsubr
          82 956 vstem
          554 1403 rmoveto
          151 -155 -22 callsubr
          11 hlineto
          -101 callsubr
          634 -680 -106 callgsubr
        </CharString>
        <CharString name="edieresis">
          -66 callgsubr
          146 4 callgsubr
          82 956 -380 256 hintmask 11111000
          325 28 callsubr
          -88 callgsubr
          hintmask 11110100
          -89 callgsubr
          252 -678 -106 callgsubr
        </CharString>
        <CharString name="egrave">
          -66 callgsubr
          20 callgsubr
          hstem
          82 956 vstem
          682 14 callsubr
          -98 callsubr
          562 -665 -106 callgsubr
        </CharString>
        <CharString name="eight">
          -97 callsubr
        </CharString>
        <CharString name="eight.frac">
          653 -84 callgsubr
          1070 -106 callsubr
        </CharString>
        <CharString name="eight.smcp">
          -35 -21 callgsubr
          312 200 285 2 callgsubr
          88 249 -221 250 323 249 -220 248 hintmask 11110010
          767 600 rmoveto
          hintmask 11101100
          106 52 65 90 112 vvcurveto
          213 -173 114 -240 -237 -172 -114 -213 -112 65 -89 106 -52 vhcurveto
          hintmask 11110010
          -122 -54 -77 -98 -129 vvcurveto
          -222 190 -114 249 250 189 114 222 129 -77 98 -122 53 vhcurveto
          hintmask 11101100
          -242 381 rmoveto
          102 62 -55 -85 -87 -60 -58 -102 -101 -60 58 87 87 60 53 99 hvcurveto
          hintmask 11110010
          2 -797 rmoveto
          -116 -74 59 97 98 74 58 114 115 78 -58 -98 -97 -76 -59 -115 hvcurveto
          endchar
        </CharString>
        <CharString name="eight.sup">
          -11 -84 callgsubr
          406 -106 callsubr
        </CharString>
        <CharString name="eight.tnum">
          -97 callsubr
        </CharString>
        <CharString name="ellipsis">
          365 -12 274 hstem
          138 1192 vstem
          283 262 -45 callsubr
          459 hmoveto
          -85 callsubr
          444 hmoveto
          -85 callsubr
          endchar
        </CharString>
        <CharString name="emdash">
          491 618 202 hstem
          126 1362 vstem
          1488 618 rmoveto
          202 -1362 -202 vlineto
          endchar
        </CharString>
        <CharString name="endash">
          228 618 202 hstem
          156 1022 vstem
          1178 618 rmoveto
          202 -1022 -202 vlineto
          endchar
        </CharString>
        <CharString name="equal">
          60 351 206 219 206 hstem
          144 867 vstem
          1011 776 42 callsubr
          867 -425 42 callsubr
          endchar
        </CharString>
        <CharString name="eth">
          100 -20 200 600 192 hstem
          101 249 492 -79 callsubr
          836 1305 rmoveto
          152 100 -77 109 -178 -118 -118 89 -141 62 -157 33 rlinecurve
          -78 -199 101 -26 98 -40 87 -56 rlinecurve
          -170 -112 78 -109 202 134 78 -76 61 -95 35 -117 rlinecurve
          54 -69 -89 34 -99 hhcurveto
          -272 -179 -201 -303 -272 200 -216 292 287 211 235 343 hvcurveto
          85 vlineto
          271 -95 226 -160 165 vhcurveto
          6 -763 rmoveto
          -206 -89 -156 -156 -158 -89 139 149 193 92 119 168 118 77 -48 -54 36 vhcurveto
          1 -11 0 -11 -11 vvcurveto
          endchar
        </CharString>
        <CharString name="exclam">
          -540 7 -21 1470 -20 hstem
          160.5 238 vstem
          386 432 rmoveto
          25 1024 rlineto
          -263 hlineto
          25 -1024 rlineto
          109 -179 rmoveto
          -89 -52 -59 -75 -75 52 -58 89 88 53 58 75 75 -53 59 -88 hvcurveto
          endchar
        </CharString>
        <CharString name="exclamdown">
          -542 834 267 hstemhm
          157.5 239 hintmask 00000000
          hintmask 11000000
          275 834 30 callgsubr
          -53 -58 -75 -75 53 -59 89 hvcurveto
          -105 -175 rmoveto
          -25 -1024 rlineto
          264 hlineto
          -25 1024 rlineto
          endchar
        </CharString>
        <CharString name="f">
          -363 -34 callsubr
          vstem
          629 1353 rmoveto
          10 callsubr
          hvcurveto
          -85 callgsubr
          219 184 -219 102 vlineto
          -10 callgsubr
          vhcurveto
          endchar
        </CharString>
        <CharString name="f_f">
          364 -34 callsubr
          478 -79 callsubr
          208 1184 rmoveto
          -54 callgsubr
          219 184 -219 102 vlineto
          -10 callgsubr
          10 callsubr
          vhcurveto
          6 195 rlineto
          11 -44 -47 7 -47 hhcurveto
          -236 -146 -132 -241 hvcurveto
          1148 169 rmoveto
          10 callsubr
          hvcurveto
          -85 callgsubr
          219 184 -219 102 vlineto
          -10 callgsubr
          vhcurveto
          endchar
        </CharString>
        <CharString name="f_f_i">
          748 21 -21 898 184 257 218 -204 204 hstemhm
          208 249 370 249 370 249 hintmask 11101110
          1076 1148 rmoveto
          127 65 64 145 106 82 -25 -22 66 vhcurveto
          38 205 rlineto
          34 -106 -97 26 -106 hhcurveto
          -276 -166 -144 -265 hvcurveto
          -66 -370 102 vlineto
          hintmask 11011110
          -10 callgsubr
          10 callsubr
          vhcurveto
          -85 callgsubr
          370 -898 249 898 213 184 -213 vlineto
          370 hmoveto
          19 callsubr
          1082 vlineto
          endchar
        </CharString>
        <CharString name="f_f_l">
          748 -34 callsubr
          370 249 370 -79 callsubr
          1243 5 callsubr
          -370 102 vlineto
          -10 callgsubr
          10 callsubr
          vhcurveto
          -85 callgsubr
          370 -898 249 898 219 184 -219 94 vlineto
          114 68 63 128 50 58 -5 -8 66 vhcurveto
          -1340 249 1512 vlineto
          21 -144 -205 24 -103 hhcurveto
          endchar
        </CharString>
        <CharString name="f_l">
          128 -34 callsubr
          370 -79 callsubr
          624 5 callsubr
          -66 callsubr
          219 184 -219 94 vlineto
          114 68 63 128 50 58 -5 -8 66 vhcurveto
          -1340 249 1512 vlineto
          21 -144 -205 24 -103 hhcurveto
          endchar
        </CharString>
        <CharString name="fi">
          109 21 -21 898 184 257 218 hstem
          189 249 370 -79 callsubr
          438 1148 rmoveto
          127 64 64 146 105 83 -25 -22 65 vhcurveto
          39 205 rlineto
          34 -107 -96 26 -106 hhcurveto
          -277 -165 -144 -265 hvcurveto
          -66 -66 callsubr
          213 184 -213 vlineto
          370 hmoveto
          19 callsubr
          1082 vlineto
          endchar
        </CharString>
        <CharString name="five">
          76 -20 200 577 199 287 213 hstem
          835 248 vstem
          170 722 rmoveto
          199 -50 rlineto
          48 51 46 37 113 hhcurveto
          169 87 -118 -165 -172 -77 -122 -156 -131 -86 77 138 -17 hvcurveto
          -242 hlineto
          -270 16 216 -145 245 hhcurveto
          324 156 218 268 304 -163 186 -276 -100 -81 -31 -26 -46 hvcurveto
          39 344 rlineto
          580 213 -786 hlineto
          endchar
        </CharString>
        <CharString name="five.frac">
          653 151 246 -48 callsubr
          1048 -99 callgsubr
        </CharString>
        <CharString name="five.smcp">
          -35 -21 callgsubr
          400 182 196 203 hstem
          730 -79 callsubr
          132 571 rmoveto
          199 -49 rlineto
          29 40 42 33 104 hhcurveto
          138 75 -81 -117 -114 -55 -88 -134 -111 -74 40 97 -11 hvcurveto
          -245 hlineto
          -215 12 204 -122 225 hhcurveto
          298 140 187 211 241 -147 143 -252 -88 -76 -27 -16 -37 hvcurveto
          33 239 rlineto
          505 203 -711 hlineto
          endchar
        </CharString>
        <CharString name="five.sup">
          -11 151 246 -48 callsubr
          384 -99 callgsubr
        </CharString>
        <CharString name="five.tnum">
          41 endchar
        </CharString>
        <CharString name="four">
          76 21 -21 323 200 933 -20 hstem
          685 -79 callsubr
          1114 523 rmoveto
          -180 933 -256 hlineto
          -625 -981 7 -152 rlineto
          625 -323 249 323 180 hlineto
          -802 200 rmoveto
          355 564 18 32 rlineto
          -596 vlineto
          endchar
        </CharString>
        <CharString name="four.frac">
          827 153 -15 callgsubr
          980 -90 callgsubr
        </CharString>
        <CharString name="four.smcp">
          -35 21 -21 248 2 callsubr
          604 -79 callsubr
          1006 448 rmoveto
          -153 717 -253 hlineto
          -551 -759 10 -158 rlineto
          545 -248 249 248 153 hlineto
          -709 200 rmoveto
          288 368 19 32 rlineto
          -400 vlineto
          endchar
        </CharString>
        <CharString name="four.sup">
          21 -21 163 153 -15 callgsubr
          316 -90 callgsubr
        </CharString>
        <CharString name="four.tnum">
          122 endchar
        </CharString>
        <CharString name="fraction">
          -167 109 1211 hstem
          43 839 vstem
          171 109 -1 callgsubr
          endchar
        </CharString>
        <CharString name="g">
          72 -27 callsubr
          80 249 462 -79 callsubr
          814 38 callgsubr
          -10 -107 rlineto
          81 -66 -94 46 -129 hhcurveto
          -268 -167 -223 -41 callgsubr
          168 -234 265 17 callsubr
          -72 vlineto
          -166 -100 -90 -160 -100 -96 40 91 -78 vhcurveto
          -116 -149 rlineto
          -129 95 188 -49 121 hhcurveto
          292 203 164 293 hvcurveto
          1051 vlineto
          -464 -898 rmoveto
          -172 -75 35 callgsubr
          77 157 172 104 68 -47 -74 41 vhcurveto
          -470 vlineto
          -75 -40 -67 -49 -108 hhcurveto
          endchar
        </CharString>
        <CharString name="g.alt">
          -7 -438 191 269 192 137 192 385 154 hstemhm
          8 240 -181 248 -173 196 388 248 -179 248 hintmask 0000000000000000
          hintmask 1111001010000000
          643 214 rmoveto
          -178 hlineto
          -72 -55 16 60 35 15 25 20 19 hvcurveto
          -12 46 50 -6 53 hhcurveto
          hintmask 1111010100000000
          271 181 164 201 hvcurveto
          22 vlineto
          72 -20 64 -37 54 vhcurveto
          135 hlineto
          -2 154 rlineto
          -367 hlineto
          13 -50 -54 7 -59 hhcurveto
          -270 -183 -150 -214 hvcurveto
          -22 vlineto
          -126 72 -112 121 -65 vhcurveto
          hintmask 1111001100000000
          -61 -42 -57 -60 -97 vvcurveto
          -52 19 -40 31 -30 vhcurveto
          hintmask 1111100010000000
          -98 -47 -86 -84 -123 vvcurveto
          -147 171 -129 315 349 200 193 160 vhcurveto
          hintmask 1111001010000000
          198 -147 101 -253 vhcurveto
          hintmask 1111010100000000
          -328 524 rmoveto
          95 80 77 125 126 80 -77 -95 vhcurveto
          -22 vlineto
          -89 -78 -84 -126 -128 -79 84 89 vhcurveto
          hintmask 1111100010000000
          179 -963 rmoveto
          -168 -78 65 76 61 35 50 47 24 hvcurveto
          -5 27 30 -2 30 hhcurveto
          202 hlineto
          136 40 -48 -67 -69 -100 -85 -201 hvcurveto
          endchar
        </CharString>
        <CharString name="g.ss06">
          82 -27 callsubr
          78 249 473 -79 callsubr
          835 -4 callgsubr
          -178 -222 -41 callgsubr
          179 -235 265 17 callsubr
          -20 vlineto
          -205 -83 -103 -188 -99 -93 29 44 -78 vhcurveto
          -52 -179 rlineto
          -64 101 138 -26 101 hhcurveto
          317 185 183 326 hvcurveto
          999 vlineto
          -463 -898 rmoveto
          -172 -87 156 190 -2 callgsubr
          197 88 151 173 104 67 -46 -74 41 vhcurveto
          -471 vlineto
          -75 -40 -67 -49 -107 hhcurveto
          endchar
        </CharString>
        <CharString name="g.ss07">
          72 -27 callsubr
          79 249 453 27 callgsubr
          816 -4 callgsubr
          -158 -222 -41 callgsubr
          160 -235 264 17 callsubr
          -32 vlineto
          -197 -83 -99 -188 -90 -84 24 37 -72 vhcurveto
          -52 -179 rlineto
          -55 94 128 -23 94 hhcurveto
          318 185 178 319 hvcurveto
          1011 vlineto
          -464 -898 rmoveto
          -172 -67 156 190 -2 callgsubr
          197 68 151 173 106 67 -48 -76 39 vhcurveto
          -462 vlineto
          -78 -39 -66 -51 -109 hhcurveto
          endchar
        </CharString>
        <CharString name="germandbls">
          170 -20 200 -159 -21 1358 2 callgsubr
          136 248 232 248 -124 241 -44 -14 callgsubr
          hintmask 01110100
          384 hmoveto
          1103 vlineto
          182 70 73 116 99 71 -62 -112 vhcurveto
          hintmask 10111010
          -153 -124 -43 -169 -265 321 -50 -173 vvcurveto
          -89 -56 -62 -127 -94 -88 37 26 -43 vhcurveto
          -50 -200 rlineto
          -34 53 129 -29 106 hhcurveto
          260 159 124 235 hvcurveto
          253 -322 78 155 vvcurveto
          hintmask 01110100
          145 117 24 206 vvcurveto
          242 -175 116 -229 -266 -175 -153 -300 vhcurveto
          -1105 vlineto
          endchar
        </CharString>
        <CharString name="grave">
          -428 9 callgsubr
          50 478 vstem
          528 14 callsubr
          -11 callgsubr
          303 rlineto
          -282 -76 callsubr
          endchar
        </CharString>
        <CharString name="gravecomb">
          -1090 9 callgsubr
          -884 477 vstem
          -407 14 callsubr
          -98 callsubr
          endchar
        </CharString>
        <CharString name="greater">
          -25 161 941 hstem
          128 864 vstem
          128 26 callsubr
          -243 vlineto
          612 -224 -612 -229 rlineto
          -245 vlineto
          864 372 -22 callsubr
          vlineto
          endchar
        </CharString>
        <CharString name="guillemotleft">
          -92 24 callsubr
          85 820 vstem
          542 936 -60 callgsubr
          609 399 -60 callgsubr
          endchar
        </CharString>
        <CharString name="guillemotright">
          -92 24 callsubr
          92 833 vstem
          549 527 rmoveto
          19 vlineto
          -287 390 rlineto
          -34 callgsubr
          376 799 rmoveto
          -34 callgsubr
          287 390 rlineto
          19 vlineto
          endchar
        </CharString>
        <CharString name="guilsinglleft">
          -462 24 callsubr
          108 457 vstem
          565 936 -60 callgsubr
          endchar
        </CharString>
        <CharString name="guilsinglright">
          -472 24 callsubr
          84 457 vstem
          254 936 rmoveto
          -34 callgsubr
          287 390 rlineto
          19 vlineto
          endchar
        </CharString>
        <CharString name="h">
          49 21 -5 callsubr
          hstem
          119 249 403 -79 callsubr
          667 26 callsubr
          -122 -103 -51 -87 -74 hvcurveto
          572 -249 -1536 249 773 vlineto
          77 43 72 49 99 hhcurveto
          123 66 -53 -149 hvcurveto
          -697 249 695 vlineto
          295 -140 112 -213 vhcurveto
          endchar
        </CharString>
        <CharString name="hyphen">
          -401 -25 callgsubr
        </CharString>
        <CharString name="i">
          -564 21 -21 1232 264 hstem
          139 -79 callsubr
          264 -20 callgsubr
          124 -1496 rmoveto
          -43 callgsubr
        </CharString>
        <CharString name="iacute">
          -1 callsubr
          343 1528 rmoveto
          -88 callsubr
          277 303 rlineto
          -233 -1528 rmoveto
          -43 callgsubr
        </CharString>
        <CharString name="icircumflex">
          -548 21 -21 1240 27 callsubr
          143 -79 callsubr
          620 1251 rmoveto
          -101 callsubr
          150 155 151 -155 -22 callsubr
          hlineto
          -228 -1240 rmoveto
          -43 callgsubr
        </CharString>
        <CharString name="idieresis">
          -548 21 -21 1238 239 0 -20 hstemhm
          143 249 -18 256 hintmask 00000000
          hintmask 11001000
          41 1478 -92 callgsubr
          -94 callgsubr
          hintmask 10110000
          -110 -1477 rmoveto
          -43 callgsubr
        </CharString>
        <CharString name="igrave">
          -1 callsubr
          398 1225 -98 callsubr
          200 -1225 rmoveto
          -43 callgsubr
        </CharString>
        <CharString name="j">
          -574 -437 205 1464 264 hstem
          134 -79 callsubr
          254 -20 callgsubr
          129 -414 rmoveto
          -249 -1173 hlineto
          -102 -44 -39 -80 -27 -32 3 5 -29 vhcurveto
          -196 vlineto
          -11 40 49 -6 42 hhcurveto
          215 115 122 224 hvcurveto
          endchar
        </CharString>
        <CharString name="k">
          -18 11 callgsubr
          124 248 vstem
          796 hmoveto
          288 hlineto
          -443 632 401 450 rlineto
          -300 hlineto
          -296 -335 -74 -92 rlineto
          881 -248 -1536 248 351 vlineto
          109 111 rlineto
          endchar
        </CharString>
        <CharString name="k.alt">
          -14 21 -21 470 11 callsubr
          127 -79 callsubr
          792 hmoveto
          289 hlineto
          -396 588 350 494 rlineto
          -290 hlineto
          -268 -413 rlineto
          -101 867 -249 -1536 249 470 109 hlineto
          endchar
        </CharString>
        <CharString name="k.alt2">
          -18 11 callgsubr
          127 -79 callsubr
          1063 hmoveto
          -472 583 428 499 rlineto
          -303 hlineto
          -340 -412 rlineto
          890 -249 -1560 249 489 vlineto
          388 -489 rlineto
          endchar
        </CharString>
        <CharString name="l">
          -564 11 callgsubr
          139 -79 callsubr
          388 hmoveto
          15 callgsubr
          -249 -1536 vlineto
          endchar
        </CharString>
        <CharString name="less">
          -48 161 941 hstem
          62 841 vstem
          903 26 callsubr
          -841 -371 rlineto
          -198 vlineto
          841 -372 rlineto
          248 vlineto
          -587 221 587 225 rlineto
          endchar
        </CharString>
        <CharString name="logicalnot">
          43 634 171 hstem
          762 200 vstem
          127 805 rmoveto
          -171 635 -260 200 431 vlineto
          endchar
        </CharString>
        <CharString name="longs">
          -564 21 -21 1357 2 callsubr
          136 -79 callsubr
          136 hmoveto
          249 1184 hlineto
          109 56 64 105 40 27 -5 -6 26 vhcurveto
          24 190 rlineto
          12 -51 -50 9 -52 hhcurveto
          -233 -141 -132 -241 hvcurveto
          endchar
        </CharString>
        <CharString name="longst">
          211 -20 206 -185 -21 41 -21 898 184 275 2 callgsubr
          208 249 337 -14 callgsubr
          hintmask 10011110
          1155 -4 callsubr
          370 vlineto
          56 -131 -173 49 -157 hhcurveto
          -234 -140 -132 -241 hvcurveto
          -102 -165 -184 165 vlineto
          hintmask 00111110
          -898 249 1184 vlineto
          109 56 64 105 67 76 -15 -16 33 vhcurveto
          -244 36 callsubr
          hintmask 01010110
          13 callgsubr
          hintmask 10010110
          192 vlineto
          hintmask 10011110
          -4 -18 -34 -6 -33 hhcurveto
          endchar
        </CharString>
        <CharString name="m">
          691 21 -5 callsubr
          hstem
          123 249 394 -11 callsubr
          vstem
          1304 26 callsubr
          -150 -111 -64 -101 -71 hvcurveto
          115 -56 -107 50 -132 hhcurveto
          -136 -104 -50 -84 -72 hvcurveto
          -8 114 rlineto
          -234 19 callsubr
          782 hlineto
          72 37 65 45 101 hhcurveto
          118 73 -49 -152 hvcurveto
          -698 249 721 vlineto
          23 vlineto
          92 28 69 63 107 hhcurveto
          117 73 -41 -157 hvcurveto
          -701 249 700 vlineto
          288 -134 114 -220 vhcurveto
          endchar
        </CharString>
        <CharString name="macron">
          -97 1292 159 hstem
          157 687 vstem
          844 1292 rmoveto
          159 -687 -159 vlineto
          endchar
        </CharString>
        <CharString name="minus">
          63 618 202 hstem
          157 851 vstem
          1008 618 rmoveto
          202 -851 -202 vlineto
          endchar
        </CharString>
        <CharString name="multiply">
          2 214 945 hstem
          76 930 vstem
          1006 1008 rmoveto
          -151 151 -314 -320 -314 320 -151 -151 315 -321 -315 -322 151 -151 314 320 314 -320 151 151 -315 322 rlineto
          endchar
        </CharString>
        <CharString name="n">
          50 21 -5 callsubr
          hstem
          120 249 402 -79 callsubr
          676 1102 -68 callgsubr
        </CharString>
        <CharString name="nine">
          76 -8 208 279 195 601 201 hstem
          93 246 459 248 vstem
          566 1476 rmoveto
          -300 -173 -229 -280 -259 138 -229 282 111 100 51 75 72 hvcurveto
          -233 -17 -116 -172 -340 hhcurveto
          -18 -208 20 hlineto
          554 167 382 428 hvcurveto
          82 vlineto
          325 -163 267 -317 vhcurveto
          1 -802 rmoveto
          -155 -73 143 157 164 82 137 144 125 108 -120 -230 hvcurveto
          -98 vlineto
          -86 -41 -86 -67 -104 hhcurveto
          endchar
        </CharString>
        <CharString name="nine.frac">
          654 -73 callgsubr
          1464 -102 callgsubr
        </CharString>
        <CharString name="nine.smcp">
          -35 -12 200 189 188 416 2 callsubr
          79 247 380 -79 callsubr
          515 1181 rmoveto
          -269 -167 -188 -226 -232 132 -158 250 99 84 37 53 59 hvcurveto
          -192 -21 -123 -87 -260 hhcurveto
          -18 -200 20 hlineto
          448 206 230 415 hvcurveto
          71 vlineto
          299 -166 178 -274 vhcurveto
          4 -616 rmoveto
          -130 -63 88 114 117 69 97 120 107 84 -74 -155 hvcurveto
          -90 vlineto
          -53 -31 -68 -44 -88 hhcurveto
          endchar
        </CharString>
        <CharString name="nine.sup">
          -10 -73 callgsubr
          800 -102 callgsubr
        </CharString>
        <CharString name="nine.tnum">
          113 endchar
        </CharString>
        <CharString name="ntilde">
          50 21 -5 callsubr
          155 -56 callsubr
          120 249 -163 151 414 249 -230 152 hintmask 00000000
          hintmask 11010110
          447 1346 rmoveto
          hintmask 11101001
          -78 callsubr
          hintmask 11010110
          -100 callgsubr
          hintmask 11101010
          229 -244 -68 callgsubr
        </CharString>
        <CharString name="numbersign">
          156 21 -21 410 160 309 161 416 -20 hstem
          93 1116 vstem
          1209 879 rmoveto
          161 -210 vlineto
          23 callgsubr
          -221 hlineto
          23 callgsubr
          -272 -161 242 hlineto
          -57 -309 rlineto
          -260 -160 231 hlineto
          -76 -410 rlineto
          169 hlineto
          76 410 rlineto
          220 hlineto
          -76 -410 rlineto
          170 hlineto
          76 410 rlineto
          250 160 -221 hlineto
          57 309 rlineto
          -226 -309 rmoveto
          -221 hlineto
          57 309 rlineto
          221 hlineto
          endchar
        </CharString>
        <CharString name="o">
          75 22 callgsubr
          511 249 vstem
          78 551 -105 callgsubr
        </CharString>
        <CharString name="o.ss06">
          95 -30 callsubr
          74 249 539 -79 callsubr
          74 551 rmoveto
          -21 38 callsubr
          201 -236 318 318 200 236 314 vhcurveto
          21 vlineto
          314 -200 237 -320 -316 -201 -237 -314 3 callgsubr
          -21 rmoveto
          21 vlineto
          189 91 -9 callsubr
          180 91 -162 -189 vhcurveto
          19 callgsubr
          -92 -3 callsubr
          -180 -90 158 192 vhcurveto
          endchar
        </CharString>
        <CharString name="oacute">
          75 -72 callgsubr
          20 callgsubr
          -35 callsubr
          649 15 callgsubr
          rmoveto
          -88 callsubr
          277 303 rlineto
          -853 -985 -105 callgsubr
        </CharString>
        <CharString name="ocircumflex">
          75 -72 callgsubr
          146 289 -35 callsubr
          926 1259 rmoveto
          -101 callsubr
          150 155 151 -155 -22 callsubr
          hlineto
          -848 -697 -105 callgsubr
        </CharString>
        <CharString name="odieresis">
          75 -72 callgsubr
          146 4 callgsubr
          3 callsubr
          353 256 -98 249 hintmask 11110100
          347 1486 -92 callgsubr
          hintmask 11111000
          -94 callgsubr
          -730 -934 rmoveto
          -21 38 callsubr
          187 -236 318 vhcurveto
          hintmask 11110100
          318 186 236 314 -2 callgsubr
          314 -186 237 -320 vhcurveto
          hintmask 11111000
          -316 -187 -237 -314 hvcurveto
          249 -21 rmoveto
          21 vlineto
          189 77 -9 callsubr
          vhcurveto
          hintmask 11110100
          180 77 -162 -189 hvcurveto
          19 callgsubr
          -78 -3 callsubr
          vhcurveto
          hintmask 11111000
          -180 -76 158 192 hvcurveto
          endchar
        </CharString>
        <CharString name="oe">
          760 -21 200 290 180 253 2 callsubr
          90 249 1193 246 vstem
          1778 614 rmoveto
          291 -153 197 -300 vhcurveto
          -146 1 -125 -65 -85 -108 rrcurveto
          107 -86 -129 65 -167 hhcurveto
          -316 -181 -237 -314 hvcurveto
          -21 38 callsubr
          181 -237 318 166 128 64 107 85 vhcurveto
          -107 87 132 -64 166 hhcurveto
          193 133 66 63 72 hvcurveto
          -79 162 rlineto
          -50 -75 -84 -41 -143 hhcurveto
          -169 -88 129 161 -14 hvcurveto
          679 hlineto
          -940 61 rmoveto
          -192 -72 -159 -177 -180 -70 159 192 vhcurveto
          21 vlineto
          189 71 -9 callsubr
          180 71 -162 -189 vhcurveto
          694 98 rmoveto
          -428 hlineto
          145 23 77 108 121 hhcurveto
          146 61 -101 -127 hvcurveto
          endchar
        </CharString>
        <CharString name="ograve">
          75 -72 callgsubr
          20 callgsubr
          -35 callsubr
          704 14 callsubr
          -98 callsubr
          -420 -682 -105 callgsubr
        </CharString>
        <CharString name="one">
          76 21 -21 1461 -20 hstem
          523 -79 callsubr
          772 hmoveto
          1461 -31 vlineto
          -573 -210 rlineto
          -208 vlineto
          355 119 rlineto
          -1162 vlineto
          endchar
        </CharString>
        <CharString name="one.smcp">
          -35 11 callgsubr
          464 -79 callsubr
          713 hmoveto
          -39 callsubr
          -28 vlineto
          -535 -175 rlineto
          -198 vlineto
          314 80 rlineto
          -872 vlineto
          endchar
        </CharString>
        <CharString name="one.sup">
          21 -21 39 callgsubr
          hmoveto
          -52 callsubr
        </CharString>
        <CharString name="one.tnum">
          -28 endchar
        </CharString>
        <CharString name="ordfeminine">
          -177 692 144 198 117 178 148 hstemhm
          141 175 -159 173 254 175 hintmask 11101100
          785 706 rmoveto
          -19 58 -7 58 65 vvcurveto
          314 vlineto
          183 -116 93 -175 -188 -123 -98 -135 vhcurveto
          173 -14 rlineto
          64 52 35 86 78 38 -45 -82 vhcurveto
          -51 -102 vlineto
          hintmask 11110100
          -230 -111 -84 -147 -138 89 -90 160 95 65 38 44 41 hvcurveto
          5 -24 5 -23 7 -21 rrcurveto
          -292 218 rmoveto
          58 51 52 116 vhcurveto
          101 -137 hlineto
          -33 -36 -61 -28 -54 hhcurveto
          -80 -37 33 55 hvcurveto
          endchar
        </CharString>
        <CharString name="ordmasculine">
          -154 691 146 492 148 hstem
          119 175 343 175 vstem
          119 1122 rmoveto
          -77 vlineto
          -207 134 -147 214 213 132 147 207 vhcurveto
          77 vlineto
          207 -132 148 -215 -212 -134 -148 -207 vhcurveto
          175 -77 rmoveto
          77 vlineto
          117 56 90 115 116 56 -90 -117 vhcurveto
          -77 vlineto
          -119 -56 -89 -114 -117 -56 89 119 vhcurveto
          endchar
        </CharString>
        <CharString name="oslash">
          70 -72 callgsubr
          110 -20 -35 callsubr
          890 1004 rmoveto
          102 208 rlineto
          -147 hlineto
          -71 -144 rlineto
          22 -57 -65 12 -71 hhcurveto
          -316 -187 -237 -314 21 callgsubr
          -197 73 -166 133 -96 vhcurveto
          -102 -209 rlineto
          147 hlineto
          72 147 rlineto
          -19 55 61 -10 66 hhcurveto
          318 186 236 314 -2 callgsubr
          192 -70 163 -127 98 vhcurveto
          -563 -474 rmoveto
          21 vlineto
          189 77 -9 callsubr
          38 34 -7 -14 30 vhcurveto
          -295 -599 rlineto
          -42 63 -19 88 97 vvcurveto
          511 hmoveto
          -192 -78 -3 callsubr
          -34 -30 6 10 -26 vhcurveto
          290 591 rlineto
          38 -63 17 -83 -90 vvcurveto
          endchar
        </CharString>
        <CharString name="otilde">
          75 -72 callgsubr
          155 -56 callsubr
          3 callsubr
          -119 -44 callgsubr
          -106 -14 callgsubr
          hintmask 11101010
          944 1515 -95 callsubr
          -866 -964 -105 callgsubr
        </CharString>
        <CharString name="p">
          63 7 callsubr
          33 callgsubr
          454 -79 callsubr
          651 26 callsubr
          -125 -95 -46 -83 -69 hvcurveto
          -10 109 rlineto
          -229 -1498 249 513 hlineto
          -74 68 93 -43 121 hhcurveto
          271 150 236 -6 callsubr
          -149 221 -275 vhcurveto
          175 -571 rmoveto
          -191 -70 -160 -172 -108 -65 49 75 -39 vhcurveto
          474 vlineto
          74 39 67 47 104 hhcurveto
          172 72 -155 -192 hvcurveto
          endchar
        </CharString>
        <CharString name="p.ss06">
          83 7 callsubr
          33 callgsubr
          474 -79 callsubr
          651 26 callsubr
          -127 -95 -48 -84 -69 hvcurveto
          -14 112 rlineto
          -223 -1498 249 512 hlineto
          -74 68 93 -42 121 hhcurveto
          271 170 235 -6 callsubr
          -169 222 -275 vhcurveto
          195 -572 rmoveto
          -190 -90 -160 -172 -105 -66 47 71 -41 vhcurveto
          484 vlineto
          72 41 67 45 102 hhcurveto
          172 92 -151 -197 hvcurveto
          endchar
        </CharString>
        <CharString name="paragraph">
          -84 -75 callgsubr
          hstem
          645 211 vstem
          645 hmoveto
          211 -68 callsubr
          -294 hlineto
          -318 -174 -200 -268 -270 174 -198 318 hvcurveto
          83 hlineto
          endchar
        </CharString>
        <CharString name="parenleft">
          -375 -462 2091 hstem
          128 224 vstem
          128 592 rmoveto
          -17 vlineto
          -576 291 -360 207 -101 vhcurveto
          49 137 rlineto
          -151 121 -172 278 499 vvcurveto
          21 vlineto
          499 172 278 151 115 vhcurveto
          -49 143 rlineto
          -207 -101 -291 -360 -576 vvcurveto
          endchar
        </CharString>
        <CharString name="parenright">
          -367 -462 2091 hstem
          363 233 vstem
          596 575 rmoveto
          17 vlineto
          566 -295 370 -212 101 vhcurveto
          -49 -137 rlineto
          141 -114 182 -285 -499 vvcurveto
          -21 vlineto
          -499 -173 -284 -150 -115 vhcurveto
          49 -137 rlineto
          212 101 295 371 565 vvcurveto
          endchar
        </CharString>
        <CharString name="percent">
          415 -21 149 381 148 143 148 381 148 hstem
          99 173 274 172 81 172 275 172 vstem
          99 1176 rmoveto
          -77 vlineto
          -163 113 -136 198 199 109 136 163 vhcurveto
          77 vlineto
          165 -109 136 -201 -196 -113 -136 -165 vhcurveto
          173 -77 rmoveto
          77 vlineto
          80 44 73 92 93 45 -73 -80 vhcurveto
          -77 vlineto
          -78 -44 -73 -92 -94 -44 73 78 vhcurveto
          189 -990 -1 callgsubr
          466 175 rmoveto
          -78 vlineto
          -164 113 -136 198 198 110 136 164 vhcurveto
          78 vlineto
          164 -110 136 -200 -196 -113 -136 -164 vhcurveto
          172 -78 rmoveto
          78 vlineto
          79 45 73 92 93 45 -73 -79 vhcurveto
          -78 vlineto
          -79 -37 -72 -99 -89 -50 73 78 vhcurveto
          endchar
        </CharString>
        <CharString name="period">
          -515 9 -21 hstem
          134 289 vstem
          279 262 -45 callsubr
          endchar
        </CharString>
        <CharString name="periodcentered">
          -507 577 273 hstem
          142 289 vstem
          286 850 rmoveto
          -91 -53 -59 -78 -77 53 -59 91 91 54 59 77 78 -54 59 -91 hvcurveto
          endchar
        </CharString>
        <CharString name="plus">
          49 577 226 403 -20 hstem
          447 240 vstem
          1065 803 rmoveto
          -378 403 -240 -403 -380 -226 380 -431 240 431 378 hlineto
          endchar
        </CharString>
        <CharString name="plusminus">
          9 1 202 498 204 hstem
          449 220 vstem
          669 905 rmoveto
          372 -220 -372 -355 -204 355 -386 220 386 341 204 vlineto
          -886 -904 rmoveto
          851 202 -851 hlineto
          endchar
        </CharString>
        <CharString name="q">
          73 22 callgsubr
          453 -79 callsubr
          807 38 callgsubr
          -13 -107 rlineto
          81 -69 -94 46 -124 hhcurveto
          -273 -156 -222 -41 callgsubr
          157 -235 -28 callgsubr
          -70 160 190 -2 callgsubr
          192 71 159 173 101 67 -45 -71 41 vhcurveto
          -485 vlineto
          -73 -41 -65 -48 -105 hhcurveto
          endchar
        </CharString>
        <CharString name="q.ss06">
          93 22 callgsubr
          473 -79 callsubr
          833 38 callgsubr
          -17 -110 rlineto
          83 -69 -94 47 -126 hhcurveto
          -273 -176 -223 -41 callgsubr
          177 -234 -28 callgsubr
          -90 159 190 -2 callgsubr
          198 91 154 173 99 68 -43 -69 42 vhcurveto
          -493 vlineto
          -71 -42 -67 -46 -102 hhcurveto
          endchar
        </CharString>
        <CharString name="question">
          -90 9 -21 1281 207 hstem
          350 231 93 27 callgsubr
          350 431 rmoveto
          231 hlineto
          1 100 20 76 72 67 rrcurveto
          129 120 121 118 177 vvcurveto
          245 -158 142 -270 -246 -188 -131 -255 -4 3 callgsubr
          hlineto
          127 2 92 52 95 hhcurveto
          116 62 -67 -123 -112 -72 -65 -90 -86 hvcurveto
          -121 -116 -40 -81 -1 -188 rrcurveto
          122 -176 rmoveto
          -88 -53 -58 -76 -75 53 -58 88 88 53 58 75 76 -53 58 -88 hvcurveto
          endchar
        </CharString>
        <CharString name="questiondown">
          -90 -386 207 1014 267 hstem
          67 249 88 231 vstem
          517 835 30 callgsubr
          -52 -58 -75 -75 52 -59 89 hvcurveto
          118 -176 rmoveto
          -231 hlineto
          -1 -100 -16 -71 -73 -68 rrcurveto
          -123 -119 -124 -122 -178 vvcurveto
          -248 161 -139 273 246 188 134 255 4 vhcurveto
          -250 hlineto
          -127 -1 -91 -55 -99 hhcurveto
          -114 -68 61 123 120 74 65 85 87 hvcurveto
          119 118 40 77 1 187 rrcurveto
          endchar
        </CharString>
        <CharString name="quotedbl">
          -427 1009 527 hstem
          96 179 126 178 vstem
          275 1400 rmoveto
          136 -179 -527 143 vlineto
          340 391 rmoveto
          136 -178 -527 142 vlineto
          endchar
        </CharString>
        <CharString name="quotedblbase">
          -307 -319 575 hstem
          140 220 108 220 vstem
          360 71 rmoveto
          185 -220 -186 vlineto
          -126 -32 -96 -56 -90 vhcurveto
          130 -77 rlineto
          107 94 71 163 133 vvcurveto
          328 hmoveto
          1 185 rlineto
          -221 -186 hlineto
          -126 -36 -96 -55 -90 vhcurveto
          129 -77 rlineto
          108 94 74 163 133 vvcurveto
          endchar
        </CharString>
        <CharString name="quotedblleft">
          -296 1056 508 hstem
          109 216 121 216 vstem
          109 1194 rmoveto
          -67 callsubr
          337 hmoveto
          -67 callsubr
          endchar
        </CharString>
        <CharString name="quotedblright">
          -289 1022 514 hstem
          158 215 121 215 vstem
          373 1392 rmoveto
          -67 callgsubr
          336 hmoveto
          -67 callgsubr
          endchar
        </CharString>
        <CharString name="quoteleft">
          -638 1056 508 hstem
          100 216 vstem
          100 1194 rmoveto
          -67 callsubr
          endchar
        </CharString>
        <CharString name="quoteright">
          -642 1022 514 hstem
          145 215 vstem
          360 1392 rmoveto
          -67 callgsubr
          endchar
        </CharString>
        <CharString name="quotesinglbase">
          -622 -299 505 hstem
          140 220 vstem
          360 71 rmoveto
          135 -220 -136 vlineto
          -117 -32 -91 -56 -84 vhcurveto
          126 -77 rlineto
          107 89 75 155 126 vvcurveto
          endchar
        </CharString>
        <CharString name="quotesingle">
          -746 1016 520 hstem
          80 188 vstem
          268 1408 rmoveto
          128 -188 -520 162 vlineto
          endchar
        </CharString>
        <CharString name="r">
          -366 21 -21 862 240 hstem
          33 callgsubr
          vstem
          610 26 callsubr
          -109 -81 -54 -88 -53 hvcurveto
          -7 122 rlineto
          -237 19 callsubr
          738 hlineto
          78 36 73 46 115 hhcurveto
          33 35 -3 -5 31 hvcurveto
          2 235 rlineto
          7 -17 -42 6 -28 hhcurveto
          endchar
        </CharString>
        <CharString name="registered">
          515 -21 125 549 134 246 133 185 125 hstemhm
          87 122 293 151 301 151 -147 150 276 123 hintmask 1111111010000000
          -81 callsubr
          308 411 rmoveto
          95 -30 77 -85 40 vhcurveto
          hintmask 1111110110000000
          77 41 41 59 79 vvcurveto
          173 -127 87 -198 vhcurveto
          -281 -850 151 337 158 hlineto
          hintmask 1111111010000000
          104 39 -45 -94 hvcurveto
          -54 vlineto
          -29 0 -81 13 -34 vhcurveto
          155 16 hlineto
          -13 30 -4 47 50 vvcurveto
          hintmask 1111110110000000
          -309 328 rmoveto
          -143 246 130 hlineto
          130 45 -33 -97 -76 -76 -39 -86 -1 hvcurveto
          endchar
        </CharString>
        <CharString name="ring">
          -401 1160 94 223 95 hstem
          121 9 callsubr
          vstem
          342 1572 rmoveto
          -127 -94 -94 -114 8 callsubr
          127 95 89 115 114 -95 94 -127 hvcurveto
          -318 vmoveto
          -66 -45 52 58 61 45 52 66 67 45 -52 -61 -59 -45 -51 -67 hvcurveto
          endchar
        </CharString>
        <CharString name="s">
          -33 -20 185 752 185 hstemhm
          109 242 364 249 -237 244 hintmask 11101000
          497 452 rmoveto
          -75 callsubr
          hintmask 11110000
          124 63 -76 -84 33 callsubr
          195 -164 150 -272 -258 -161 -152 -177 vhcurveto
          hintmask 11101000
          -183 158 -90 230 -48 vhcurveto
          endchar
        </CharString>
        <CharString name="section">
          185 -472 201 1548 2 callgsubr
          90 249 -245 249 -214 249 505 249 -236 249 -225 247 hintmask 11001100
          997 186 rmoveto
          hintmask 11001001
          108 56 62 93 124 vvcurveto
          245 -172 99 -303 80 vhcurveto
          -254 69 -60 39 112 vvcurveto
          95 79 79 179 vhcurveto
          hintmask 11001010
          170 90 -102 -127 33 callsubr
          276 -193 153 -316 -308 -199 -149 -227 -131 47 -89 87 -66 vhcurveto
          hintmask 11010100
          -107 -57 -62 -94 -122 vvcurveto
          -246 177 -100 295 -79 vhcurveto
          244 -71 73 -46 -102 vvcurveto
          -99 -91 -70 -166 vhcurveto
          hintmask 11100100
          -137 -150 50 174 hvcurveto
          -249 -1 rlineto
          -322 271 -102 265 306 200 134 237 vhcurveto
          hintmask 11001100
          133 -47 88 -88 66 vhcurveto
          hintmask 11010001
          -654 373 rmoveto
          74 33 59 71 29 vhcurveto
          47 -18 52 -15 56 -16 rrcurveto
          244 -74 74 -51 -105 vvcurveto
          -73 -39 -58 -70 -31 vhcurveto
          -47 17 -51 16 -56 15 rrcurveto
          -255 73 -59 42 116 vvcurveto
          endchar
        </CharString>
        <CharString name="semicolon">
          -596 833 274 hstemhm
          151 221 hintmask 00000000
          hintmask 11000000
          253 1107 -45 callsubr
          119 -1046 -43 callsubr
        </CharString>
        <CharString name="seven">
          76 21 -21 1256 2 callsubr
          69 1011 vstem
          1080 1318 rmoveto
          138 -1011 -200 749 vlineto
          -579 -1256 rlineto
          262 hlineto
          endchar
        </CharString>
        <CharString name="seven.frac">
          1301 -25 callsubr
          1347 -65 callsubr
        </CharString>
        <CharString name="seven.smcp">
          -35 21 -21 964 201 hstem
          57 921 vstem
          978 1026 rmoveto
          139 -921 -201 659 vlineto
          -512 -964 rlineto
          263 hlineto
          endchar
        </CharString>
        <CharString name="seven.sup">
          21 -21 637 -25 callsubr
          683 -65 callsubr
        </CharString>
        <CharString name="seven.tnum">
          -20 endchar
        </CharString>
        <CharString name="six">
          12 callsubr
          115 250 471 247 vstem
          667 -87 callgsubr
        </CharString>
        <CharString name="six.frac">
          653 -74 callsubr
          1190 -103 callsubr
        </CharString>
        <CharString name="six.smcp">
          -36 -21 callgsubr
          392 199 200 204 hstem
          94 249 396 247 vstem
          614 775 rmoveto
          -115 -91 -46 -62 -61 hvcurveto
          210 24 142 98 262 hhcurveto
          15 204 -34 hlineto
          -436 -226 -242 -409 hvcurveto
          -77 vlineto
          -288 174 -179 282 269 167 173 228 217 -122 173 -250 vhcurveto
          -69 -591 rmoveto
          -116 -86 79 163 hvcurveto
          47 vlineto
          56 33 76 47 94 hhcurveto
          124 69 -76 -116 -114 -75 -86 -119 hvcurveto
          endchar
        </CharString>
        <CharString name="six.sup">
          -11 -74 callsubr
          526 -103 callsubr
        </CharString>
        <CharString name="six.tnum">
          12 callsubr
          108 250 471 247 vstem
          660 -87 callgsubr
        </CharString>
        <CharString name="slash">
          -285 10 callgsubr
          0 763 vstem
          195 -125 rmoveto
          568 1581 rlineto
          -194 hlineto
          -569 -1581 rlineto
          endchar
        </CharString>
        <CharString name="space">
          -580 endchar
        </CharString>
        <CharString name="st">
          632 -20 185 733 184 -165 185 268 190 hstemhm
          109 242 300 225 -161 250 -238 244 252 249 hintmask 1101010010000000
          1585 186 rmoveto
          -68 -45 30 105 hvcurveto
          577 190 184 -190 90 vlineto
          184 -92 204 -335 -249 -145 -132 -162 vhcurveto
          hintmask 1011110010000000
          -63 18 -60 27 -63 vhcurveto
          14 -50 -56 8 -62 hhcurveto
          -258 -161 -152 -177 -183 158 -90 230 -48 hvcurveto
          hintmask 1011100110000000
          -75 callsubr
          hintmask 1011001010000000
          124 63 -76 -84 hvcurveto
          250 hlineto
          hintmask 1011010010000000
          205 -89 99 157 vvcurveto
          81 50 71 115 114 68 -69 -130 vhcurveto
          hintmask 1101010010000000
          -89 -169 -184 169 -578 vlineto
          -243 119 -97 166 70 52 11 13 39 vhcurveto
          192 vlineto
          -4 -18 -34 -6 -32 hhcurveto
          endchar
        </CharString>
        <CharString name="sterling">
          117 0 208 388 204 468 208 hstemhm
          242 259 -238 261 358 251 hintmask 00000000
          hintmask 11101100
          460 208 rmoveto
          45 58 19 74 84 vvcurveto
          -6 172 rlineto
          303 204 hlineto
          hintmask 11110100
          -311 hlineto
          -9 239 rlineto
          149 81 80 105 103 92 -52 -145 vhcurveto
          251 hlineto
          242 -159 163 -278 -265 -189 -161 -276 vhcurveto
          8 -239 rlineto
          -155 -204 hlineto
          hintmask 11101100
          162 hlineto
          6 -181 rlineto
          -82 -15 -109 -66 -16 vhcurveto
          -83 -208 1050 hlineto
          1 208 rlineto
          endchar
        </CharString>
        <CharString name="sterling.smcp">
          42 0 201 284 149 346 201 hstemhm
          211.5 249.5 -243 250 309 -14 callgsubr
          hintmask 11001000
          392 201 rmoveto
          55 75 26 99 -5 110 rrcurveto
          377 149 hlineto
          hintmask 11110100
          -382 hlineto
          -4 103 rlineto
          158 -6 60 85 101 hhcurveto
          90 73 -53 -148 33 callsubr
          240 -138 162 -275 -250 -162 -163 -281 9 vhcurveto
          3 -103 rlineto
          -155 -149 hlineto
          hintmask 11001000
          160 -4 hlineto
          4 -111 -14 -150 -71 -19 rrcurveto
          -10 -201 928 201 hlineto
          endchar
        </CharString>
        <CharString name="t">
          -407 -20 206 712 184 hstemhm
          184 -14 callgsubr
          hintmask 11100000
          545 -4 callsubr
          264 -249 -264 36 callsubr
          13 callgsubr
          192 vlineto
          -4 -18 -34 -6 -33 hhcurveto
          endchar
        </CharString>
        <CharString name="thorn">
          83 7 callsubr
          129 249 453 -79 callsubr
          657 26 callsubr
          -120 -91 -42 -75 -68 hvcurveto
          551 -249 -1952 249 512 vlineto
          -74 68 93 -42 121 hhcurveto
          270 150 236 -6 callsubr
          -149 221 -274 vhcurveto
          174 -571 rmoveto
          -191 -69 -160 -172 -107 -66 49 73 -39 vhcurveto
          477 vlineto
          74 40 67 46 103 hhcurveto
          172 71 -155 -192 hvcurveto
          endchar
        </CharString>
        <CharString name="three">
          76 -20 200 465 196 435 2 callgsubr
          3 callsubr
          -235 249 438 249 -227 249 hintmask 11110010
          805 748 rmoveto
          hintmask 11101100
          149 68 74 130 116 vvcurveto
          273 -191 141 -280 -268 -197 -168 -231 3 callgsubr
          hlineto
          123 94 76 126 147 71 -80 -134 -130 -79 -91 -164 vhcurveto
          -145 -196 145 hlineto
          hintmask 11110010
          163 102 -72 -164 -147 -91 -82 -149 -141 -93 86 126 hvcurveto
          -249 hlineto
          -273 228 -139 251 280 213 155 273 146 -69 134 -176 60 vhcurveto
          endchar
        </CharString>
        <CharString name="three.smcp">
          -35 -21 callgsubr
          321 178 298 2 callgsubr
          61 249 -234 249 366 249 -229 249 hintmask 11110010
          746 598 rmoveto
          hintmask 11101100
          126 50 68 95 106 vvcurveto
          217 -178 115 -260 -239 -187 -125 -200 3 callgsubr
          hlineto
          78 78 47 104 129 55 -61 -83 -91 -65 -63 -137 vhcurveto
          -128 -178 128 hlineto
          hintmask 11110010
          137 85 -48 -116 -94 -70 -63 -129 -124 -78 63 83 hvcurveto
          -249 hlineto
          -242 218 -104 223 260 198 124 218 135 -67 95 -147 42 vhcurveto
          endchar
        </CharString>
        <CharString name="three.sup">
          -11 -73 callsubr
          405 -96 callsubr
        </CharString>
        <CharString name="three.tnum">
          21 endchar
        </CharString>
        <CharString name="tilde">
          -105 1257 -56 callsubr
          122 -44 callgsubr
          hintmask 10110000
          858 13 callsubr
          hintmask 01110000
          -100 callgsubr
          hintmask 10110000
          -56 callgsubr
          127 97 109 149 hvcurveto
          endchar
        </CharString>
        <CharString name="tildecomb">
          -1090 1257 -56 callsubr
          -912 -44 callgsubr
          hintmask 10110000
          -176 13 callsubr
          hintmask 01110000
          -100 callgsubr
          hintmask 10110000
          -56 callgsubr
          127 97 109 149 hvcurveto
          endchar
        </CharString>
        <CharString name="two">
          76 -19 callgsubr
          1076 2 callsubr
          80 249 456 -79 callsubr
          1090 hmoveto
          200 -670 vlineto
          316 338 rlineto
          174 183 124 169 184 vvcurveto
          245 -166 157 -293 -315 -180 -210 -255 3 callgsubr
          hlineto
          154 81 111 162 136 77 -95 -133 -97 -46 -91 -157 -174 vhcurveto
          -474 -514 rlineto
          -172 vlineto
          endchar
        </CharString>
        <CharString name="two.smcp">
          -35 -19 callgsubr
          781 2 callsubr
          65 250 376 -79 callsubr
          985 hmoveto
          200 -576 vlineto
          246 202 rlineto
          178 158 107 111 160 vvcurveto
          214 -158 136 -269 -282 -166 -175 -213 vhcurveto
          250 hlineto
          108 63 80 141 110 62 -64 -89 -63 -43 -82 -132 -117 vhcurveto
          -424 -396 rlineto
          -170 vlineto
          endchar
        </CharString>
        <CharString name="two.sup">
          0 -42 callgsubr
          hmoveto
          -91 callsubr
        </CharString>
        <CharString name="two.tnum">
          64 endchar
        </CharString>
        <CharString name="u">
          49 -29 callgsubr
          -24 callgsubr
          hintmask 01110000
          769 38 callgsubr
          -776 vlineto
          hintmask 10110000
          -93 callgsubr
          hintmask 01110000
          -39 callgsubr
        </CharString>
        <CharString name="uacute">
          49 -29 callgsubr
          14 callsubr
          303 -24 callgsubr
          hintmask 01111000
          925 15 callgsubr
          rmoveto
          -282 hlineto
          -88 callsubr
          121 -151 rmoveto
          -776 vlineto
          hintmask 10111000
          -93 callgsubr
          hintmask 01111000
          -39 callgsubr
        </CharString>
        <CharString name="ucircumflex">
          49 -29 callgsubr
          28 callsubr
          289 -24 callgsubr
          hintmask 01111000
          570 1403 rmoveto
          151 -155 -22 callsubr
          11 hlineto
          -101 callsubr
          349 -166 rmoveto
          -776 vlineto
          hintmask 10111000
          -93 callgsubr
          hintmask 01111000
          -39 callgsubr
        </CharString>
        <CharString name="udieresis">
          49 -29 callgsubr
          28 callsubr
          238 25 callgsubr
          308 256 -161 250 hintmask 01110100
          341 28 callsubr
          -88 callgsubr
          hintmask 01111000
          461 -2 rmoveto
          hintmask 01110100
          78 50 52 67 67 -50 53 -78 hvcurveto
          hintmask 01111000
          -79 -49 -53 -67 -67 49 -52 79 hvcurveto
          hintmask 10110100
          -33 -164 rmoveto
          -776 vlineto
          -93 callgsubr
          hintmask 01110100
          -39 callgsubr
        </CharString>
        <CharString name="ugrave">
          49 -29 callgsubr
          14 callsubr
          303 -24 callgsubr
          hintmask 01111000
          698 14 callsubr
          -98 callsubr
          277 -151 rmoveto
          -776 vlineto
          hintmask 10111000
          -93 callgsubr
          hintmask 01111000
          -39 callgsubr
        </CharString>
        <CharString name="underscore">
          -167 -196 196 hstem
          3 917 vstem
          920 -196 rmoveto
          196 -917 -196 vlineto
          endchar
        </CharString>
        <CharString name="uni00AD">
          -490 -25 callgsubr
        </CharString>
        <CharString name="uni00B2">
          667 -42 callgsubr
          667 rmoveto
          -91 callsubr
        </CharString>
        <CharString name="uni00B3">
          656 -73 callsubr
          1072 -96 callsubr
        </CharString>
        <CharString name="uni00B9">
          667 29 callgsubr
          667 rmoveto
          -52 callsubr
        </CharString>
        <CharString name="uni05B0">
          8 callgsubr
          88 165 hstem
          526 181 vstem
          617 -329 rmoveto
          -92 callsubr
          -253 vmoveto
          -92 callsubr
          endchar
        </CharString>
        <CharString name="uni05B1">
          8 callgsubr
          -128 165 51 165 hstemhm
          271 181 -53 181 -54 181 76 181 hintmask 00000000
          hintmask 10110110
          362 -329 rmoveto
          -91 callgsubr
          -47 40 -35 51 hvcurveto
          255 hmoveto
          -92 callsubr
          257 hmoveto
          -92 callsubr
          hintmask 01101010
          -384 -18 callgsubr
          hintmask 10101010
          384 -37 rmoveto
          -92 callsubr
          endchar
        </CharString>
        <CharString name="uni05B2">
          8 callgsubr
          88 165 -139 115 hstemhm
          777 181 hintmask 00000000
          hintmask 11010000
          868 -329 rmoveto
          -92 callsubr
          hintmask 10110000
          -590 26 rmoveto
          421 115 -421 hlineto
          590 -394 rmoveto
          -92 callsubr
          endchar
        </CharString>
        <CharString name="uni05B3">
          8 callgsubr
          -134 -21 243 165 -139 115 hstemhm
          400 180 197 181 hintmask 00000000
          hintmask 01101100
          868 -329 rmoveto
          -92 callsubr
          -378 -243 rmoveto
          52 38 35 47 hvcurveto
          hintmask 01011100
          53 -45 8 -9 126 vhcurveto
          174 115 -423 -115 176 hlineto
          -8 -126 -45 -8 -53 vvcurveto
          hintmask 01101100
          -45 39 -37 51 vhcurveto
          hintmask 10011100
          378 -10 rmoveto
          -92 callsubr
          endchar
        </CharString>
        <CharString name="uni05B4">
          -1090 -329 165 hstem
          526 181 vstem
          617 -329 rmoveto
          -77 callsubr
          endchar
        </CharString>
        <CharString name="uni05B5">
          -1090 -329 165 hstem
          399 181 72 181 vstem
          490 -329 rmoveto
          -77 callsubr
          253 hmoveto
          -77 callsubr
          endchar
        </CharString>
        <CharString name="uni05B6">
          -1090 -545 165 51 165 hstemhm
          399 181 -54 181 -55 181 hintmask 00000000
          hintmask 11101000
          490 -329 rmoveto
          -77 callsubr
          253 hmoveto
          -77 callsubr
          hintmask 11010000
          -126 -18 callgsubr
          endchar
        </CharString>
        <CharString name="uni05B7">
          -1090 -303 115 hstem
          395 443 vstem
          395 -303 -6 callgsubr
        </CharString>
        <CharString name="uni05B8">
          -1090 -542 -21 260 115 hstem
          527 181 vstem
          618 -563 rmoveto
          29 callsubr
          hvcurveto
          165 115 -402 -115 5 callgsubr
          vhcurveto
          endchar
        </CharString>
        <CharString name="uni05B9">
          -16 callsubr
          192 182 vstem
          283 -54 callsubr
          endchar
        </CharString>
        <CharString name="uni05BA">
          -16 callsubr
          192 182 vstem
          283 -54 callsubr
          endchar
        </CharString>
        <CharString name="uni05BB">
          -1090 -748 165 45 164 45 165 hstemhm
          526 181 -47 181 -47 181 hintmask 11110100
          617 -329 rmoveto
          -59 callgsubr
          40 -37 51 hvcurveto
          hintmask 11101000
          134 -209 rmoveto
          51 39 34 47 46 -39 37 -51 -53 callsubr
          -48 -45 39 -36 52 hvcurveto
          hintmask 11110100
          134 -210 rmoveto
          52 38 34 47 48 -38 36 -52 -52 -39 -36 -48 -44 -9 callgsubr
          endchar
        </CharString>
        <CharString name="uni05BC">
          -1090 518 165 hstem
          235 182 vstem
          326 518 -104 callgsubr
          endchar
        </CharString>
        <CharString name="uni05BE">
          -534 25 callsubr
          60 436 vstem
          496 990 rmoveto
          199 -436 -199 vlineto
          endchar
        </CharString>
        <CharString name="uni05BF">
          -1090 1362 135 hstem
          230 537 vstem
          230 -18 callsubr
          endchar
        </CharString>
        <CharString name="uni05C1">
          -16 callsubr
          1287 182 vstem
          1378 1342 rmoveto
          53 31 callgsubr
          -53 -51 -40 -35 -48 -45 40 -37 51 hvcurveto
          endchar
        </CharString>
        <CharString name="uni05C2">
          -16 callsubr
          172 182 vstem
          263 -53 callgsubr
          endchar
        </CharString>
        <CharString name="uni05D0">
          259 21 -21 -13 callsubr
          176 245 -99 callsubr
          endchar
        </CharString>
        <CharString name="uni05D1">
          8 7 callgsubr
          664 253 vstem
          917 209 -80 callgsubr
          endchar
        </CharString>
        <CharString name="uni05D2">
          -239 12 callgsubr
          416 -14 callgsubr
          hintmask 10011000
          79 -81 callgsubr
        </CharString>
        <CharString name="uni05D2.001">
          -223 12 callgsubr
          432 -14 callgsubr
          hintmask 10011000
          95 -81 callgsubr
        </CharString>
        <CharString name="uni05D3">
          26 -82 callgsubr
          592 -26 callsubr
          endchar
        </CharString>
        <CharString name="uni05D4">
          152 -82 callgsubr
          144 245 458 -46 callsubr
          -703 -758 -28 callsubr
        </CharString>
        <CharString name="uni05D5">
          -456 24 callgsubr
          vstem
          208 hmoveto
          6 callgsubr
        </CharString>
        <CharString name="uni05D6">
          -328 -82 callgsubr
          71 622 -32 callgsubr
          endchar
        </CharString>
        <CharString name="uni05D7">
          182 -82 callgsubr
          172.5 253.5 450 -38 callgsubr
          172 hmoveto
          254 990 233 hlineto
          149 68 -73 -162 hvcurveto
          -17 callgsubr
          -2 -157 151 -313 hhcurveto
          -485 hlineto
          endchar
        </CharString>
        <CharString name="uni05D8">
          198 -23 197 820 21 callsubr
          488 253 hintmask 10011100
          -37 callgsubr
          hintmask 11001100
          -46 callgsubr
          hintmask 10101100
          741 -254 -716 vlineto
          hintmask 10011100
          37 callsubr
          endchar
        </CharString>
        <CharString name="uni05D9">
          -426 25 callsubr
          254 -38 callgsubr
          254 518 -76 callgsubr
          endchar
        </CharString>
        <CharString name="uni05DA">
          -46 25 callsubr
          622 -19 callsubr
          endchar
        </CharString>
        <CharString name="uni05DB">
          28 -18 198 810 11 callsubr
          692 -38 callgsubr
          414 -18 -86 callsubr
          endchar
        </CharString>
        <CharString name="uni05DC">
          -6 -82 callgsubr
          73 -38 callgsubr
          -38 callsubr
          endchar
        </CharString>
        <CharString name="uni05DD">
          238 7 callgsubr
          172 254 476 -38 callgsubr
          172 hmoveto
          984 1189 -984 hlineto
          254 -989 rmoveto
          790 476 -790 vlineto
          endchar
        </CharString>
        <CharString name="uni05DE">
          243 0 199 808 34 callsubr
          937 -83 callsubr
          endchar
        </CharString>
        <CharString name="uni05DF">
          -466 25 callsubr
          202 27 callgsubr
          202 -416 rmoveto
          250 1605 -373 -199 123 hlineto
          endchar
        </CharString>
        <CharString name="uni05E0">
          -307 -20 207 803 11 callsubr
          358 -62 callgsubr
          endchar
        </CharString>
        <CharString name="uni05E1">
          229 -23 211 819 34 callsubr
          156 253 533 -90 callsubr
          endchar
        </CharString>
        <CharString name="uni05E2">
          147 -13 callsubr
          812 253 vstem
          812 -55 callgsubr
          -707 vlineto
          -158 -77 -101 -127 -40 vhcurveto
          -24 42 -3 callgsubr
          17 -77 40 -62 45 -45 rlinecurve
          -86 9 -99 25 -109 42 35 callsubr
          -23 132 hhcurveto
          330 226 180 340 hvcurveto
          696 vlineto
          endchar
        </CharString>
        <CharString name="uni05E3">
          16 callsubr
          406 11 callsubr
          187 247 397 -77 callgsubr
          endchar
        </CharString>
        <CharString name="uni05E4">
          -33 callgsubr
          352 11 callsubr
          186 248 466 -38 callgsubr
          601 -23 -98 callgsubr
          endchar
        </CharString>
        <CharString name="uni05E5">
          54 -13 callsubr
          584 240 vstem
          751 531 rmoveto
          357 658 rlineto
          -285 hlineto
          -221 -437 -275 437 rlineto
          -284 hlineto
          503 -741 rlineto
          26 -39 12 -39 -47 vvcurveto
          -739 240 713 vlineto
          88 -19 66 -45 66 vhcurveto
          endchar
        </CharString>
        <CharString name="uni05E6">
          76 -19 callgsubr
          989 -20 hstem
          43 1065 -55 callsubr
          endchar
        </CharString>
        <CharString name="uni05E7">
          219 -82 callgsubr
          188 245 450 -50 callgsubr
          -401 -611 -27 callgsubr
        </CharString>
        <CharString name="uni05E8">
          -77 -82 callgsubr
          617 -45 callgsubr
          endchar
        </CharString>
        <CharString name="uni05E8.001">
          -93 callsubr
        </CharString>
        <CharString name="uni05E8.002">
          -93 callsubr
        </CharString>
        <CharString name="uni05E8.003">
          -93 callsubr
        </CharString>
        <CharString name="uni05E8.004">
          -93 callsubr
        </CharString>
        <CharString name="uni05E9">
          -5 callgsubr
          1021 -20 hstem
          172 245 308 246 317 245 vstem
          417 1189 -78 callgsubr
          -105 callsubr
          endchar
        </CharString>
        <CharString name="uni05EA">
          213 -8 callgsubr
          428 254 hintmask 00111100
          689 -55 callgsubr
          -581 -74 callgsubr
          161 hlineto
          149 67 -73 -162 hvcurveto
          hintmask 00111100
          -17 callgsubr
          -159 151 -313 vhcurveto
          endchar
        </CharString>
        <CharString name="uni05F0">
          178 24 callgsubr
          380 -38 callgsubr
          208 hmoveto
          -65 callgsubr
          634 -990 1 callgsubr
        </CharString>
        <CharString name="uni05F1">
          208 24 callgsubr
          426 -38 callgsubr
          208 hmoveto
          -65 callgsubr
          680 -472 -76 callgsubr
          endchar
        </CharString>
        <CharString name="uni05F2">
          238 25 callsubr
          254 254 410 -38 callgsubr
          254 518 -76 callgsubr
          664 -472 -76 callgsubr
          endchar
        </CharString>
        <CharString name="uni05F3">
          -683 879 559 hstem
          116 227 vstem
          170 879 -60 callsubr
          endchar
        </CharString>
        <CharString name="uni05F4">
          -278 879 559 hstem
          136 227 141 227 vstem
          190 879 -60 callsubr
          521 -64 -60 callsubr
          endchar
        </CharString>
        <CharString name="uni1E9E">
          269 -21 200 -158 -21 1276 2 callgsubr
          113 249 661 249 hintmask 10111000
          842 849 rmoveto
          325 391 rlineto
          137 -165 -174 99 -232 hhcurveto
          -322 -160 -174 -344 -1 hvcurveto
          hintmask 01111000
          -958 249 956 vlineto
          193 59 127 175 124 79 -43 -48 66 vhcurveto
          -282 -336 rlineto
          -173 141 vlineto
          194 105 -73 -191 hvcurveto
          hintmask 10111000
          -138 -98 -95 -169 -94 -77 27 22 -49 vhcurveto
          -70 -194 rlineto
          -35 88 101 -20 119 hhcurveto
          282 216 152 283 257 -157 150 -273 28 hvcurveto
          endchar
        </CharString>
        <CharString name="uni1E9E.smcp">
          32 -21 196 -175 34 -13 -21 985 196 hstemhm
          116 244 445 245 hintmask 00111100
          722 674 rmoveto
          245 294 rlineto
          128 -115 -133 85 -184 hhcurveto
          -276 -142 -145 -288 -1 hvcurveto
          -748 244 746 vlineto
          140 50 99 123 68 46 -27 -31 36 vhcurveto
          -199 -252 rlineto
          -164 84 vlineto
          153 84 -42 -115 hvcurveto
          hintmask 10011100
          -105 -61 -74 -103 -62 -50 27 22 -33 vhcurveto
          hintmask 01011100
          -70 -190 rlineto
          hintmask 10011100
          -35 67 76 -20 89 hhcurveto
          221 171 132 245 hvcurveto
          hintmask 00111100
          179 -124 109 -204 30 vhcurveto
          endchar
        </CharString>
        <CharString name="uni200C">
          -1090 -200 1435 hstem
          -666 166 vstem
          -666 1235 rmoveto
          -1435 166 1435 vlineto
          endchar
        </CharString>
        <CharString name="uni200D">
          -1090 -200 1723 hstem
          -668 166 vstem
          -287 1404 rmoveto
          -122 119 -174 -177 -173 177 -122 -119 176 -180 -176 -180 122 -120 88 90 rlineto
          -1214 166 1218 vlineto
          92 -94 123 120 -176 180 rlineto
          endchar
        </CharString>
        <CharString name="uni200E">
          39 callsubr
          -855 166 vstem
          -406 1493 rmoveto
          -202 hlineto
          166 -172 rlineto
          -413 -1521 166 1363 239 hlineto
          -164 -161 rlineto
          202 hlineto
          229 240 rlineto
          endchar
        </CharString>
        <CharString name="uni200F">
          39 callsubr
          -432 166 vstem
          -679 1321 rmoveto
          166 172 rlineto
          -202 hlineto
          -223 -251 229 -240 rlineto
          202 hlineto
          -164 161 rlineto
          239 -1363 166 1521 hlineto
          endchar
        </CharString>
        <CharString name="uni2070">
          656 -62 callsubr
          984 -100 callsubr
        </CharString>
        <CharString name="uni2074">
          830 153 473 -20 -15 callgsubr
          983 -90 callgsubr
        </CharString>
        <CharString name="uni2075">
          656 151 246 -48 callsubr
          1051 -99 callgsubr
        </CharString>
        <CharString name="uni2076">
          656 -74 callsubr
          1193 -103 callsubr
        </CharString>
        <CharString name="uni2077">
          1304 -25 callsubr
          1350 -65 callsubr
        </CharString>
        <CharString name="uni2078">
          656 -84 callgsubr
          1073 -106 callsubr
        </CharString>
        <CharString name="uni2079">
          657 -73 callgsubr
          1467 -102 callgsubr
        </CharString>
        <CharString name="uni2080">
          -375 -62 callsubr
          -47 -100 callsubr
        </CharString>
        <CharString name="uni2081">
          -364 29 callgsubr
          -364 rmoveto
          -52 callsubr
        </CharString>
        <CharString name="uni2082">
          -364 -42 callgsubr
          -364 rmoveto
          -91 callsubr
        </CharString>
        <CharString name="uni2083">
          -375 -73 callsubr
          41 -96 callsubr
        </CharString>
        <CharString name="uni2084">
          -201 153 -15 callgsubr
          -48 -90 callgsubr
        </CharString>
        <CharString name="uni2085">
          -375 151 228 -21 39 -48 callsubr
          20 -99 callgsubr
        </CharString>
        <CharString name="uni2086">
          -375 -74 callsubr
          162 -103 callsubr
        </CharString>
        <CharString name="uni2087">
          273 -25 callsubr
          319 -65 callsubr
        </CharString>
        <CharString name="uni2088">
          -375 -84 callgsubr
          42 -106 callsubr
        </CharString>
        <CharString name="uni2089">
          -374 -73 callgsubr
          436 -102 callgsubr
        </CharString>
        <CharString name="uni20AA">
          741 0 206 779 206 hstem
          142 234 201 234 180 234 200 234 vstem
          142 hmoveto
          234 985 615 -348 hlineto
          -89 -10 -93 -19 -77 vhcurveto
          12 -10 203 33 rlineto
          33 77 15 97 81 vvcurveto
          535 -1083 vlineto
          435 -1191 rmoveto
          506 hlineto
          365 213 196 323 -2 hvcurveto
          672 -234 -677 vlineto
          -196 -141 -113 -192 1 vhcurveto
          -281 590 -234 hlineto
          endchar
        </CharString>
        <CharString name="uniFB1F">
          238 -303 115 1178 11 callsubr
          254 254 410 -38 callgsubr
          254 518 -76 callgsubr
          664 -472 -76 callgsubr
          -755 -1293 -6 callgsubr
        </CharString>
        <CharString name="uniFB20">
          179 -39 200 1028 -20 hstem
          60 1037 vstem
          844 -55 callgsubr
          -32 -713 -7 -150 -67 -99 -113 -43 rlinecurve
          -24 41 -3 callgsubr
          18 -81 45 -66 48 -45 rlinecurve
          -93 6 -107 26 -120 47 35 callsubr
          -30 132 hhcurveto
          330 209 187 340 16 hvcurveto
          33 701 rlineto
          endchar
        </CharString>
        <CharString name="uniFB21">
          762 21 -21 -13 callsubr
          209 246 vstem
          1767 -55 callgsubr
          -284 hlineto
          -333 -641 -684 641 rlineto
          -336 hlineto
          252 -238 rlineto
          -116 -82 -57 -125 -172 vvcurveto
          -572 246 568 vlineto
          117 17 81 32 70 vhcurveto
          885 -836 rlineto
          347 hlineto
          -404 378 rlineto
          endchar
        </CharString>
        <CharString name="uniFB22">
          306 21 -71 callsubr
          -188 188 hstemhm
          828 254 hintmask 11010000
          60 -55 callgsubr
          -199 768 -990 254 vlineto
          hintmask 10110000
          975 vlineto
          248 26 rlineto
          hintmask 11010000
          188 vlineto
          endchar
        </CharString>
        <CharString name="uniFB23">
          557 -82 callgsubr
          144 249 858 -38 callgsubr
          1251 0 callgsubr
          -928 -199 915 hlineto
          120 -14 callsubr
          -1107 -806 rmoveto
          249 392 hlineto
          97 17 108 12 53 vhcurveto
          -11 11 -227 -32 rlineto
          -9 -25 -31 -85 -122 vvcurveto
          endchar
        </CharString>
        <CharString name="uniFB24">
          468 -36 207 819 11 callsubr
          1132 -38 callgsubr
          674 -36 rmoveto
          444 266 171 353 2 hvcurveto
          701 -1274 -199 1020 -500 vlineto
          -207 -1 -141 -112 -325 hhcurveto
          -141 -202 22 43 -214 hvcurveto
          -37 -199 rlineto
          -48 214 220 -25 169 hhcurveto
          endchar
        </CharString>
        <CharString name="uniFB25">
          348 -82 callgsubr
          73 -38 callgsubr
          1367 -55 callgsubr
          -1040 293 -254 -492 988 hlineto
          -560 -990 rlineto
          270 hlineto
          596 1028 rlineto
          endchar
        </CharString>
        <CharString name="uniFB26">
          699 7 callgsubr
          130 254 1000 253 vstem
          130 hmoveto
          1507 1189 -1507 hlineto
          254 -989 rmoveto
          790 1000 -790 vlineto
          endchar
        </CharString>
        <CharString name="uniFB27">
          321 -82 callgsubr
          1015 -38 callgsubr
          1015 0 callgsubr
          -790 -199 777 hlineto
          121 69 -68 -116 hvcurveto
          endchar
        </CharString>
        <CharString name="uniFB28">
          699 -8 callgsubr
          915 253 hintmask 00111100
          1177 -55 callgsubr
          -1069 -74 callgsubr
          647 hlineto
          149 68 -73 -162 hvcurveto
          hintmask 00111100
          1 -755 rlineto
          252 737 hlineto
          301 -159 151 -311 vhcurveto
          endchar
        </CharString>
        <CharString name="uniFB29">
          26 574 212 420 -20 hstem
          439 229 vstem
          439 1206 rmoveto
          -420 -381 -212 998 212 -388 420 vlineto
          endchar
        </CharString>
        <CharString name="uniFB2A">
          -5 callgsubr
          1021 -31 callsubr
          308 246 317 245 -224 182 hintmask 00000000
          hintmask 11111010
          -58 callsubr
          hintmask 11111100
          -105 callsubr
          endchar
        </CharString>
        <CharString name="uniFB2B">
          -5 callgsubr
          1021 -31 callsubr
          -222 182 348 246 317 245 hintmask 00000000
          hintmask 11101110
          286 -53 callgsubr
          hintmask 11110110
          131 -7 callsubr
          -105 callsubr
          endchar
        </CharString>
        <CharString name="uniFB2C">
          -5 callgsubr
          352 165 504 -31 callsubr
          308 246 66 182 69 245 -224 182 hintmask 0000000000000000
          hintmask 1111110010000000
          -58 callsubr
          hintmask 1111111100000000
          -105 callsubr
          460 164 -104 callgsubr
          endchar
        </CharString>
        <CharString name="uniFB2D">
          -5 callgsubr
          352 165 504 -31 callsubr
          -222 182 348 246 66 182 69 245 hintmask 0000000000000000
          hintmask 1111011010000000
          286 -53 callgsubr
          hintmask 1111101110000000
          131 -7 callsubr
          -105 callsubr
          460 164 -104 callgsubr
          endchar
        </CharString>
        <CharString name="uniFB2E">
          259 -303 115 209 -21 -13 callsubr
          176 245 -99 callsubr
          -425 -813 -6 callgsubr
        </CharString>
        <CharString name="uniFB2F">
          259 -542 -21 260 115 209 -21 -13 callsubr
          176 245 180 181 -99 callsubr
          -404 -813 rmoveto
          5 callgsubr
          29 callsubr
          vhcurveto
          165 115 -402 hlineto
          endchar
        </CharString>
        <CharString name="uniFB30">
          259 21 -21 107 165 917 -20 hstem
          176 245 93 182 -99 callsubr
          -289 -238 rmoveto
          -53 callsubr
          -47 -46 39 -37 52 -63 callgsubr
          47 -39 35 -52 hvcurveto
          endchar
        </CharString>
        <CharString name="uniFB31">
          8 -19 callgsubr
          320 18 callgsubr
          273 182 209 253 vstem
          917 209 -80 callgsubr
          -603 412 -50 callsubr
        </CharString>
        <CharString name="uniFB32">
          -239 -11 229 -203 -21 27 -58 callgsubr
          hstemhm
          93 182 141 -14 callgsubr
          hintmask 10011010
          79 -11 rmoveto
          194 153 148 178 28 hvcurveto
          6 hlineto
          hintmask 00111010
          70 -315 rlineto
          236 hlineto
          -82 395 rlineto
          -12 59 -7 67 61 vvcurveto
          607 -514 -199 265 -525 vlineto
          hintmask 10011010
          -42 -146 -107 -97 -173 -4 rrcurveto
          -24 -26 1 5 -28 hvcurveto
          hintmask 01011010
          -230 vlineto
          hintmask 10011010
          -4 20 22 -1 21 hhcurveto
          hintmask 00111110
          105 531 -104 callgsubr
          endchar
        </CharString>
        <CharString name="uniFB33">
          26 -61 callgsubr
          214 182 196 -26 callsubr
          -745 -669 -104 callgsubr
          endchar
        </CharString>
        <CharString name="uniFB34">
          152 -61 callgsubr
          144 245 139 182 137 -46 callsubr
          -228 -238 -104 callgsubr
          -475 -520 -28 callsubr
        </CharString>
        <CharString name="uniFB35">
          -456 -61 callgsubr
          -44 182 70 -38 callgsubr
          208 hmoveto
          -65 callgsubr
          -161 -470 -104 callgsubr
          endchar
        </CharString>
        <CharString name="uniFB36">
          -328 -61 callgsubr
          517 182 -32 callgsubr
          461 -461 -104 callgsubr
          endchar
        </CharString>
        <CharString name="uniFB38">
          198 -23 197 346 165 309 21 callsubr
          153 182 153 253 hintmask 11001101
          -37 callgsubr
          hintmask 11100101
          -46 callgsubr
          hintmask 11010101
          741 -254 -716 vlineto
          hintmask 11001101
          37 callsubr
          hintmask 11001111
          543 vmoveto
          -63 callgsubr
          47 30 callsubr
          -47 -46 -9 callgsubr
          endchar
        </CharString>
        <CharString name="uniFB39">
          -426 689 165 136 11 callsubr
          -19 182 91 -38 callgsubr
          254 518 -76 callgsubr
          -182 -301 -104 callgsubr
          endchar
        </CharString>
        <CharString name="uniFB3A">
          -46 551 165 274 11 callsubr
          225 182 215 -19 callsubr
          -306 -439 -104 callgsubr
          endchar
        </CharString>
        <CharString name="uniFB3B">
          28 -18 198 340 18 callgsubr
          294 182 216 -38 callgsubr
          414 -18 -86 callsubr
          -29 538 -104 callgsubr
          endchar
        </CharString>
        <CharString name="uniFB3C">
          -6 21 -21 583 165 242 199 hstemhm
          73 254 -118 182 hintmask 11110000
          -38 callsubr
          hintmask 11101000
          -622 -362 -50 callsubr
        </CharString>
        <CharString name="uniFB3E">
          243 0 199 321 165 322 34 callsubr
          615 182 140 -83 callsubr
          460 -190 -104 callgsubr
          endchar
        </CharString>
        <CharString name="uniFB40">
          -307 -20 207 333 18 callgsubr
          63 182 113 -62 callgsubr
          -117 540 -104 callgsubr
          endchar
        </CharString>
        <CharString name="uniFB41">
          229 -23 211 332 165 322 34 callsubr
          156 253 176 182 175 -90 callsubr
          1 332 -104 callgsubr
          endchar
        </CharString>
        <CharString name="uniFB43">
          16 callsubr
          106 165 135 11 callsubr
          187 247 110 182 105 -77 callgsubr
          -447 1106 -104 callgsubr
          endchar
        </CharString>
        <CharString name="uniFB44">
          -33 callgsubr
          67 165 120 11 callsubr
          186 248 148 182 136 -38 callgsubr
          601 -23 -98 callgsubr
          72 728 -104 callgsubr
          endchar
        </CharString>
        <CharString name="uniFB46">
          76 -19 callgsubr
          113 165 711 -20 hstem
          216 182 -55 callsubr
          -355 -139 -50 callsubr
        </CharString>
        <CharString name="uniFB47">
          219 -61 callgsubr
          188 245 131 182 137 -50 callgsubr
          66 325 -104 callgsubr
          -467 -936 -27 callgsubr
        </CharString>
        <CharString name="uniFB48">
          -77 -61 callgsubr
          221 182 214 -45 callgsubr
          -305 -286 -104 callgsubr
          endchar
        </CharString>
        <CharString name="uniFB49">
          -5 callgsubr
          352 165 504 -20 hstem
          172 245 308 246 66 182 69 245 vstem
          417 1189 -78 callgsubr
          -105 callsubr
          460 164 -104 callgsubr
          endchar
        </CharString>
        <CharString name="uniFB4A">
          213 -14 207 -175 -21 24 -58 callgsubr
          hstemhm
          232 247 122 182 124 254 hintmask 00111101
          689 -55 callgsubr
          -581 -199 203 hlineto
          -52 -75 -27 -126 -98 vvcurveto
          -329 vlineto
          hintmask 10011101
          -116 -50 -53 -105 -22 -22 1 2 -23 vhcurveto
          hintmask 01011101
          -199 vlineto
          hintmask 10011101
          -7 47 39 -4 49 hhcurveto
          213 121 127 231 hvcurveto
          369 vlineto
          96 20 108 31 73 vhcurveto
          161 hlineto
          149 67 -73 -162 hvcurveto
          hintmask 00111101
          -17 callgsubr
          -159 151 -313 vhcurveto
          hintmask 00111111
          3 -669 -104 callgsubr
          endchar
        </CharString>
        <CharString name="uniFB4B">
          -456 21 -71 callsubr
          153 165 hstemhm
          187 182 -161 254 hintmask 00000000
          hintmask 11110000
          278 -54 callsubr
          hintmask 11101000
          -70 -1342 1 callgsubr
        </CharString>
        <CharString name="uniFB4C">
          8 -19 callgsubr
          790 199 173 135 hstem
          664 253 vstem
          765 1497 rmoveto
          -537 -135 537 hlineto
          152 -1153 -80 callgsubr
          endchar
        </CharString>
        <CharString name="uniFB4D">
          28 -18 198 810 199 173 135 hstem
          692 -38 callgsubr
          229 -18 callsubr
          185 -1515 -86 callsubr
          endchar
        </CharString>
        <CharString name="uniFB4E">
          -33 callgsubr
          352 199 173 135 hstem
          186 248 466 -38 callgsubr
          387 -18 callsubr
          214 -1520 -98 callgsubr
          endchar
        </CharString>
        <CharString name="uniFB4F">
          143 21 -21 -13 callsubr
          73 -38 callgsubr
          1148 -55 callgsubr
          -284 hlineto
          -245 -467 -292 417 rlineto
          343 -254 -387 vlineto
          770 -1095 rlineto
          282 hlineto
          -351 501 rlineto
          endchar
        </CharString>
        <CharString name="v">
          -73 11 callgsubr
          22 969 vstem
          733 38 callgsubr
          -224 -767 -229 767 rlineto
          -258 hlineto
          376 -1082 rlineto
          219 hlineto
          374 1082 rlineto
          endchar
        </CharString>
        <CharString name="w">
          430 11 callgsubr
          33 1450 vstem
          1241 38 callgsubr
          -169 -741 -221 741 rlineto
          -186 hlineto
          -219 -730 -171 730 rlineto
          -242 hlineto
          293 -1082 rlineto
          205 hlineto
          225 735 229 -735 rlineto
          205 hlineto
          293 1082 rlineto
          endchar
        </CharString>
        <CharString name="x">
          -58 11 callgsubr
          30 974 vstem
          515 731 rmoveto
          -199 351 rlineto
          -274 hlineto
          327 -532 -339 -550 rlineto
          275 hlineto
          212 366 213 -366 rlineto
          274 hlineto
          -339 550 327 532 rlineto
          -274 hlineto
          endchar
        </CharString>
        <CharString name="y">
          -89 -437 207 hstem
          11 977 vstem
          723 1082 -89 callsubr
        </CharString>
        <CharString name="yacute">
          -89 -437 207 1463 -33 callsubr
          11 977 vstem
          870 15 callgsubr
          rmoveto
          -282 hlineto
          -88 callsubr
          130 -151 -89 callsubr
        </CharString>
        <CharString name="ydieresis">
          -89 -437 207 1478 4 callgsubr
          11 977 -369 256 hintmask 11100000
          286 28 callsubr
          -88 callgsubr
          hintmask 11010000
          -89 callgsubr
          -24 -164 -89 callsubr
        </CharString>
        <CharString name="yen">
          0 21 -21 298 154 135 155 714 -20 hstem
          412 28 callgsubr
          1078 -26 callgsubr
          -275 hlineto
          -256 -602 -257 602 rlineto
          -278 hlineto
          340 -714 rlineto
          -248 -155 308 -135 -308 -154 308 -298 258 298 301 154 -301 135 301 155 -232 hlineto
          endchar
        </CharString>
        <CharString name="yen.smcp">
          -157 21 -21 217 149 70 150 hstem
          338 -79 callsubr
          923 -12 callgsubr
          -262 hlineto
          -194 -504 -195 504 rlineto
          -263 hlineto
          258 -579 rlineto
          -196 -150 262 hlineto
          5 -11 rlineto
          -59 -267 -149 267 -217 249 217 267 149 -267 44 vlineto
          12 26 rlineto
          255 150 -189 hlineto
          endchar
        </CharString>
        <CharString name="z">
          -58 -19 callgsubr
          681 201 hstem
          81 881 vstem
          393 200 rmoveto
          548 726 rlineto
          156 -849 -201 533 vlineto
          -544 -719 rlineto
          -162 881 200 vlineto
          endchar
        </CharString>
        <CharString name="zero">
          76 -20 200 1096 2 callsubr
          104 249 459 -79 callsubr
          1061 612 rmoveto
          238 vlineto
          459 -191 167 -288 -287 -191 -167 -459 vhcurveto
          -238 vlineto
          -459 193 -173 287 288 189 173 459 vhcurveto
          -249 275 rmoveto
          -310 vlineto
          -290 -80 -107 -148 -146 -85 107 290 vhcurveto
          310 vlineto
          290 83 99 146 148 82 -99 -290 vhcurveto
          endchar
        </CharString>
        <CharString name="zero.frac">
          653 -62 callsubr
          981 -100 callsubr
        </CharString>
        <CharString name="zero.smcp">
          -35 -49 callsubr
          hstem
          88 249 380 -79 callsubr
          966 479 rmoveto
          207 vlineto
          338 -177 157 -263 -262 -176 -157 -338 vhcurveto
          -207 vlineto
          -339 178 -156 262 262 176 156 339 vhcurveto
          -249 228 rmoveto
          -248 vlineto
          -193 -68 -82 -121 -120 -71 82 193 vhcurveto
          248 vlineto
          191 69 82 120 122 69 -82 -191 vhcurveto
          endchar
        </CharString>
        <CharString name="zero.sup">
          -11 -62 callsubr
          317 -100 callsubr
        </CharString>
        <CharString name="zero.tnum">
          166 endchar
        </CharString>
      <CharString index="0">
        rmoveto
        73 vlineto
        442 -245 270 -362 -356 -250 -270 -442 vhcurveto
        -73 vlineto
        -442 252 -269 356 362 243 269 442 vhcurveto
        -260 75 rmoveto
        -75 vlineto
        -323 -124 -175 -221 -214 -134 175 323 vhcurveto
        75 vlineto
        323 132 173 214 220 127 -173 -323 vhcurveto
        endchar
      </CharString>
      <CharString index="1">
        rmoveto
        313 -150 221 -314 -280 -212 -218 -340 vhcurveto
        -41 vlineto
        -296 197 -227 323 215 134 101 102 69 vhcurveto
        -133 129 rlineto
        -83 -64 -89 -49 -117 hhcurveto
        -168 -102 119 164 -14 hvcurveto
        705 hlineto
        -246 180 rmoveto
        -454 hlineto
        161 22 81 98 132 hhcurveto
        158 55 -115 -125 6 hvcurveto
        endchar
      </CharString>
      <CharString index="2">
        rmoveto
        -21 38 callsubr
        187 -236 318 318 186 236 314 vhcurveto
        21 vlineto
        314 -186 237 -320 -316 -187 -237 -314 3 callgsubr
        -21 rmoveto
        21 vlineto
        189 77 -9 callsubr
        180 77 -162 -189 vhcurveto
        19 callgsubr
        -78 -3 callsubr
        -180 -76 158 192 vhcurveto
        endchar
      </CharString>
      <CharString index="3">
        rmoveto
        -63 callgsubr
        47 30 callsubr
        -47 -46 -9 callgsubr
        return
      </CharString>
      <CharString index="4">
        251 hlineto
        -468 -39 callsubr
        rlineto
        -229 hlineto
        -470 -1165 rlineto
        251 hlineto
        94 246 rlineto
        477 hlineto
        -405 188 rmoveto
        166 437 167 -437 rlineto
        endchar
      </CharString>
      <CharString index="5">
        rmoveto
        -181 -122 -129 -155 -166 95 -97 166 60 54 22 34 41 hvcurveto
        -131 -17 -87 -38 -156 hhcurveto
        -13 -150 15 hlineto
        279 170 125 309 hvcurveto
        53 vlineto
        217 -126 106 -178 vhcurveto
        6 -406 rmoveto
        -80 -40 48 73 73 42 60 72 69 47 -40 -94 hvcurveto
        -70 vlineto
        -26 -18 -38 -24 -54 hhcurveto
        endchar
      </CharString>
      <CharString index="6">
        -94 callsubr
        hintmask 10111110
        -49 callgsubr
        hintmask 01111110
        6 -39 9 -36 12 -26 rrcurveto
        254 17 hlineto
        -27 57 -14 78 100 vvcurveto
        hintmask 10111110
        -95 callgsubr
      </CharString>
      <CharString index="7">
        -102 -60 89 -108 hhcurveto
        -128 -95 -115 -146 hvcurveto
        151 -8 rlineto
        61 40 41 50 vhcurveto
        return
      </CharString>
      <CharString index="8">
        rmoveto
        151 -37 rlineto
        16 21 30 23 68 hhcurveto
        86 45 -49 -73 -68 -29 -56 -86 -68 -45 23 58 -4 hvcurveto
        -188 hlineto
        -145 4 146 -87 155 hhcurveto
        207 97 132 142 162 -98 94 -173 -58 -54 -19 -8 -21 hvcurveto
        21 146 rlineto
        339 151 -494 hlineto
        endchar
      </CharString>
      <CharString index="9">
        rmoveto
        313 -2 240 161 368 vvcurveto
        685 -1018 -199 135 vlineto
        -54 -82 -31 -131 -131 vvcurveto
        2 -132 99 -58 115 -20 160 13 rlinecurve
        189 vlineto
        -56 -43 4 9 -29 hvcurveto
        74 vlineto
        94 20 96 35 75 vhcurveto
        411 -527 hlineto
        -184 -110 -97 -204 -2 vhcurveto
        -91 -134 18 37 -129 hvcurveto
        -47 -187 rlineto
        -46 133 158 -25 125 hhcurveto
        return
      </CharString>
      <CharString index="10">
        rmoveto
        -259 -971 hlineto
        -206 -109 -91 -178 -176 -111 91 206 vhcurveto
        971 -258 -971 vlineto
        -334 231 -171 314 304 242 171 334 vhcurveto
        endchar
      </CharString>
      <CharString index="11">
        rmoveto
        -250 -766 hlineto
        -151 -85 -64 -142 -142 -88 64 151 vhcurveto
        766 -248 -766 vlineto
        -271 199 -144 279 273 204 144 271 vhcurveto
        endchar
      </CharString>
      <CharString index="12">
        -476 -73 rmoveto
        -108 -59 64 85 111 88 68 176 hvcurveto
        130 -202 hlineto
        -64 -33 -84 -62 -110 hhcurveto
        endchar
      </CharString>
      <CharString index="13">
        461 -1 rmoveto
        -79 -49 -53 -67 -67 49 -52 79 78 50 52 67 67 -50 53 -78 hvcurveto
        return
      </CharString>
      <CharString index="14">
        -75 -39 -73 -47 -122 hhcurveto
        -91 -78 45 152 hvcurveto
        701 -249 -699 vlineto
        -287 145 -116 213 136 100 47 80 67 vhcurveto
        return
      </CharString>
      <CharString index="15">
        rmoveto
        -79 -49 -53 -67 -66 49 -52 79 78 50 52 66 67 -50 53 -78 hvcurveto
        return
      </CharString>
      <CharString index="16">
        52 38 35 47 -83 callgsubr
        return
      </CharString>
      <CharString index="17">
        rmoveto
        -95 473 -190 hlineto
        -365 -503 10 -123 rlineto
        356 -163 189 163 95 hlineto
        -466 153 rmoveto
        169 216 13 21 rlineto
        -237 vlineto
        endchar
      </CharString>
      <CharString index="18">
        461 -2 rmoveto
        78 50 52 67 67 -50 53 -78 -79 -49 -53 -67 -67 49 -52 79 hvcurveto
        return
      </CharString>
      <CharString index="19">
        rmoveto
        78 50 52 66 67 -50 53 -78 -79 -49 -53 -67 -66 49 -52 79 hvcurveto
        return
      </CharString>
      <CharString index="20">
        966 rmoveto
        -121 -103 -43 -78 -73 hvcurveto
        231 27 143 183 311 hhcurveto
        17 205 -30 hlineto
        -520 -203 -378 -437 hvcurveto
        -97 vlineto
        -308 178 -264 315 300 175 218 280 254 -132 234 -284 vhcurveto
        -62 -785 rmoveto
        -132 -108 118 230 hvcurveto
        77 vlineto
        88 36 91 71 112 hhcurveto
        151 81 -132 -161 -170 -87 -121 -144 hvcurveto
        endchar
      </CharString>
      <CharString index="21">
        rmoveto
        440 595 204 -595 395 690 209 -949 -48 callgsubr
        955 208 vlineto
        endchar
      </CharString>
      <CharString index="22">
        6 195 rlineto
        11 -44 -47 7 -47 hhcurveto
        -236 -146 -132 -241 hvcurveto
        -54 callgsubr
        return
      </CharString>
      <CharString index="23">
        151 187 152 170 151 hstemhm
        75 189 -170 189 193 189 -170 188 hintmask 11110010
        551 return
      </CharString>
      <CharString index="24">
        48 -38 -70 callsubr
        return
      </CharString>
      <CharString index="25">
        21 -21 25 callsubr
        return
      </CharString>
      <CharString index="26">
        -11 rmoveto
        194 153 148 178 28 hvcurveto
        6 hlineto
        hintmask 00111000
        70 -315 rlineto
        236 hlineto
        -82 395 rlineto
        -12 59 -7 67 61 vvcurveto
        607 -514 -199 265 -525 vlineto
        hintmask 10011000
        -42 -146 -107 -97 -173 -4 rrcurveto
        -24 -26 1 5 -28 hvcurveto
        hintmask 01011000
        -230 vlineto
        hintmask 10011000
        -4 20 22 -1 21 hhcurveto
        endchar
      </CharString>
      <CharString index="27">
        rmoveto
        539 vlineto
        286 -168 155 -307 vhcurveto
        -321 -199 305 hlineto
        164 74 -72 -160 hvcurveto
        -558 -608 -200 1002 191 vlineto
        return
      </CharString>
      <CharString index="28">
        -152 12 rlineto
        -62 -40 -41 -51 vhcurveto
        return
      </CharString>
      <CharString index="29">
        rmoveto
        -245 -1075 hlineto
        -97 203 232 -50 206 hhcurveto
        return
      </CharString>
      <CharString index="30">
        251 vstem
        1082 -55 callgsubr
        -946 -199 135 hlineto
        -54 -82 -33 -139 2 -131 2 -178 rcurveline
        99 -58 115 -20 160 13 rrcurveto
        189 vlineto
        -56 -43 4 9 -29 hvcurveto
        120 vlineto
        94 20 104 35 75 vhcurveto
        342 -1406 251 hlineto
        return
      </CharString>
      <CharString index="31">
        rmoveto
        254 671 -455 -199 201 hlineto
        return
      </CharString>
      <CharString index="32">
        21 -21 -20 callsubr
        return
      </CharString>
      <CharString index="33">
        -199 203 hlineto
        -52 -75 -27 -126 -98 vvcurveto
        -329 vlineto
        hintmask 10011100
        -116 -50 -53 -105 -22 -22 1 2 -23 vhcurveto
        hintmask 01011100
        -199 vlineto
        hintmask 10011100
        -7 47 39 -4 49 hhcurveto
        213 121 127 231 hvcurveto
        369 vlineto
        96 20 108 31 73 vhcurveto
        return
      </CharString>
      <CharString index="34">
        150 113 141 254 152 hstem
        70 189 230 188 vstem
        373 return
      </CharString>
      <CharString index="35">
        -20 200 722 200 return
      </CharString>
      <CharString index="36">
        -303 rlineto
        200 return
      </CharString>
      <CharString index="37">
        -196 -46 170 174 hvcurveto
        34 vlineto
        171 47 173 194 130 75 -95 -114 6 vhcurveto
        235 hlineto
        return
      </CharString>
      <CharString index="38">
        990 199 return
      </CharString>
      <CharString index="39">
        rmoveto
        -130 -108 -53 -92 -76 hvcurveto
        -8 125 rlineto
        -234 19 callsubr
        771 hlineto
        78 44 73 50 96 hhcurveto
        123 66 -51 -148 hvcurveto
        -700 249 698 vlineto
        296 -136 108 -208 vhcurveto
        endchar
      </CharString>
      <CharString index="40">
        144 -215 -145 vlineto
        -117 -37 -90 -55 -84 vhcurveto
        125 -78 rlineto
        108 90 74 154 126 vvcurveto
        return
      </CharString>
      <CharString index="41">
        10 -20 200 283 180 259 200 return
      </CharString>
      <CharString index="42">
        254 1189 -374 -199 120 hlineto
        return
      </CharString>
      <CharString index="43">
        126 -49 callsubr
        return
      </CharString>
      <CharString index="44">
        52 39 35 48 return
      </CharString>
      <CharString index="45">
        253 vstem
        271 -20 rmoveto
        216 124 129 230 hvcurveto
        850 -473 -199 220 -631 vlineto
        -118 -50 -54 -99 -53 -50 4 7 -43 vhcurveto
        -3 -193 rlineto
        -17 77 60 -8 74 hhcurveto
        return
      </CharString>
      <CharString index="46">
        21 -58 callgsubr
        hstem
        return
      </CharString>
      <CharString index="47">
        rmoveto
        -170 hlineto
        -287 -390 rlineto
        -19 vlineto
        287 -390 rlineto
        170 hlineto
        -246 400 rlineto
        return
      </CharString>
      <CharString index="48">
        -91 callgsubr
        -45 return
      </CharString>
      <CharString index="49">
        -21 520 -51 callsubr
        return
      </CharString>
      <CharString index="50">
        -98 -19 callgsubr
        302 200 262 201 return
      </CharString>
      <CharString index="51">
        107 33 -89 131 hhcurveto
        return
      </CharString>
      <CharString index="52">
        1189 rmoveto
        return
      </CharString>
      <CharString index="53">
        -102 -66 callsubr
        return
      </CharString>
      <CharString index="54">
        -23 callgsubr
        -51 -40 -35 -48 -45 40 -37 51 hvcurveto
        return
      </CharString>
      <CharString index="55">
        422 hlineto
        403 264 272 420 hvcurveto
        71 vlineto
        420 -267 273 -390 vhcurveto
        397 -764 rmoveto
        -303 -136 -181 -271 vhcurveto
        -163 return
      </CharString>
      <CharString index="56">
        377 hlineto
        343 232 224 333 hvcurveto
        50 vlineto
        333 -233 225 -338 vhcurveto
        322 -608 rmoveto
        -231 -97 -126 -229 vhcurveto
        -128 return
      </CharString>
      <CharString index="57">
        -38 callgsubr
        589 hmoveto
        336 9 212 184 319 vvcurveto
        677 -965 -199 711 -483 vlineto
        -197 -114 -109 -180 -6 vhcurveto
        return
      </CharString>
      <CharString index="58">
        -80 callsubr
        vhcurveto
        return
      </CharString>
      <CharString index="59">
        -1456 return
      </CharString>
      <CharString index="60">
        -39 callsubr
        -249 -1165 vlineto
        endchar
      </CharString>
      <CharString index="61">
        29 -165 rlineto
        17 44 43 10 38 hhcurveto
        96 53 -63 -115 hvcurveto
        -368 vlineto
        -164 -98 -110 -147 -146 -97 110 164 vhcurveto
        return
      </CharString>
      <CharString index="62">
        -38 callgsubr
        617 42 callgsubr
        -161 148 -270 vhcurveto
        -392 -199 378 hlineto
        121 -14 callsubr
        return
      </CharString>
      <CharString index="63">
        151 433 152 return
      </CharString>
      <CharString index="64">
        1082 -249 -1082 vlineto
        endchar
      </CharString>
      <CharString index="65">
        151 498 151 hstem
        60 189 226 190 vstem
        691 return
      </CharString>
      <CharString index="66">
        -329 21 callgsubr
        -315 return
      </CharString>
      <CharString index="67">
        -48 callgsubr
        259 return
      </CharString>
      <CharString index="68">
        6 -107 rlineto
        235 1082 hlineto
        endchar
      </CharString>
      <CharString index="69">
        254 vstem
        return
      </CharString>
      <CharString index="70">
        670 -23 rmoveto
        299 198 199 297 hvcurveto
        364 vlineto
        226 -121 138 -198 -77 -93 -28 -41 -67 vhcurveto
        return
      </CharString>
      <CharString index="71">
        -39 callsubr
        -249 -787 vlineto
        -515 787 rlineto
        -249 26 callgsubr
        787 hlineto
        515 -787 rlineto
        endchar
      </CharString>
      <CharString index="72">
        247 -20 208 1268 -20 return
      </CharString>
      <CharString index="73">
        -170 hlineto
        246 -399 -246 -400 rlineto
        170 hlineto
        return
      </CharString>
      <CharString index="74">
        236 -23 203 265.53 192.47 return
      </CharString>
      <CharString index="75">
        vstem
        292 hmoveto
        261 hlineto
        -157 990 rlineto
        296 hlineto
        1 199 rlineto
        -622 -192 hlineto
        76 -16 rlineto
        return
      </CharString>
      <CharString index="76">
        249 hintmask 10111000
        653 26 callsubr
        -122 -92 -44 -78 -67 hvcurveto
        556 -249 vlineto
        hintmask 01111000
        -1536 return
      </CharString>
      <CharString index="77">
        hstem
        125 258 574 259 vstem
        return
      </CharString>
      <CharString index="78">
        -20 204 -163 -21 return
      </CharString>
      <CharString index="79">
        270 117 91 41 72 67 vhcurveto
        -509 249 1498 vlineto
        -460 -902 rmoveto
        -172 return
      </CharString>
      <CharString index="80">
        rmoveto
        245 869 hlineto
        104 7 70 15 56 vhcurveto
        -205 hlineto
        -23 -39 -39 -64 -150 vvcurveto
        endchar
      </CharString>
      <CharString index="81">
        -68 callsubr
        rmoveto
        return
      </CharString>
      <CharString index="82">
        520 2 callsubr
        77 529 vstem
        606 520 rmoveto
        200 -529 -200 vlineto
        endchar
      </CharString>
      <CharString index="83">
        25 callgsubr
        403 250 return
      </CharString>
      <CharString index="84">
        1342 rmoveto
        52 39 34 48 48 -39 35 -52 return
      </CharString>
      <CharString index="85">
        116 249 return
      </CharString>
      <CharString index="86">
        -16 200 return
      </CharString>
      <CharString index="87">
        1496 rmoveto
        -89 -52 -57 -76 -75 52 -56 89 88 53 56 75 76 -53 57 -88 hvcurveto
        return
      </CharString>
      <CharString index="88">
        0 200 return
      </CharString>
      <CharString index="89">
        -216 rmoveto
        52 38 34 48 -83 callgsubr
        -48 39 -34 52 hvcurveto
        return
      </CharString>
      <CharString index="90">
        1 -755 rlineto
        253 737 hlineto
        301 return
      </CharString>
      <CharString index="91">
        -509 -75 callgsubr
        return
      </CharString>
      <CharString index="92">
        hstem
        419 189 vstem
        703 return
      </CharString>
      <CharString index="93">
        249 hintmask 00000000
        return
      </CharString>
      <CharString index="94">
        hstem
        -22 callgsubr
        return
      </CharString>
      <CharString index="95">
        -39 callsubr
        rmoveto
        return
      </CharString>
      <CharString index="96">
        rmoveto
        -196 return
      </CharString>
      <CharString index="97">
        109 63 60 109 return
      </CharString>
      <CharString index="98">
        39 -37 52 hvcurveto
        return
      </CharString>
      <CharString index="99">
        41 callsubr
        990 199 hstemhm
        232 247 return
      </CharString>
      <CharString index="100">
        68 -21 callgsubr
        1079 -33 callsubr
        102 248 457 27 callgsubr
        return
      </CharString>
      <CharString index="101">
        rmoveto
        443 115 -443 hlineto
        endchar
      </CharString>
      <CharString index="102">
        615 -33 201 return
      </CharString>
      <CharString index="103">
        38 callgsubr
        -16 -113 rlineto
        85 -67 -95 48 -133 hhcurveto
        -268 return
      </CharString>
      <CharString index="104">
        -15 47 -13 60 -183 857 rcurveline
        -255 hlineto
        190 -836 return
      </CharString>
      <CharString index="105">
        hvcurveto
        21 vlineto
        return
      </CharString>
      <CharString index="106">
        rmoveto
        711 1138 -128 73 -711 -1138 rlineto
        return
      </CharString>
      <CharString index="107">
        42 callgsubr
        -160 148 -271 vhcurveto
        return
      </CharString>
      <CharString index="108">
        rmoveto
        6 callgsubr
      </CharString>
      <CharString index="109">
        200 hstemhm
        return
      </CharString>
      <CharString index="110">
        vhcurveto
        249 return
      </CharString>
      <CharString index="111">
        238 hstemhm
        return
      </CharString>
      <CharString index="112">
        165 hlineto
        -8 -117 -46 -8 -53 vvcurveto
        -45 39 -37 52 return
      </CharString>
      <CharString index="113">
        -65 callgsubr
        endchar
      </CharString>
      <CharString index="114">
        -19 callgsubr
        790 11 callsubr
        return
      </CharString>
      <CharString index="115">
        -1090 -582 165 return
      </CharString>
      <CharString index="116">
        14 callsubr
        -33 callsubr
        return
      </CharString>
      <CharString index="117">
        -20 callsubr
        hstem
        return
      </CharString>
      <CharString index="118">
        21 -21 hstem
        return
      </CharString>
      <CharString index="119">
        40 callgsubr
        990 199 hstemhm
        return
      </CharString>
      <CharString index="120">
        -224 119 -82 165 71 52 11 13 39 vhcurveto
        return
      </CharString>
      <CharString index="121">
        132 hlineto
        224 98 -122 -233 hvcurveto
        endchar
      </CharString>
      <CharString index="122">
        1536 return
      </CharString>
      <CharString index="123">
        188 -45 50 -48 -83 vvcurveto
        -71 -60 -64 -142 return
      </CharString>
      <CharString index="124">
        -105 -6 -88 -75 -116 hhcurveto
        return
      </CharString>
      <CharString index="125">
        -51 callsubr
        hstem
        return
      </CharString>
      <CharString index="126">
        -21 vlineto
        -192 return
      </CharString>
      <CharString index="127">
        131 303 return
      </CharString>
      <CharString index="128">
        hvcurveto
        -21 vlineto
        return
      </CharString>
      <CharString index="129">
        -30 callsubr
        78 249 return
      </CharString>
      <CharString index="130">
        77 416 rlineto
        -169 hlineto
        -77 -416 rlineto
        return
      </CharString>
</ttFont>
